0
SECTION
2
HEADER
9
$INSUNITS
70
1
0
ENDSEC
0
SECTION
2
TABLES
0
TABLE
2
LAYER
0
ENDTAB
0
ENDSEC
0
SECTION
2
ENTITIES
0
LINE
8
front_outsideCutPath
10
0
20
6.861
11
0
21
5.971
0
LINE
8
front_outsideCutPath
10
0
20
5.971
11
0.118
21
5.971
0
LINE
8
front_outsideCutPath
10
0.118
20
5.971
11
0.118
21
4.319
0
LINE
8
front_outsideCutPath
10
0.118
20
4.319
11
0
21
4.319
0
LINE
8
front_outsideCutPath
10
0
20
4.319
11
0
21
2.667
0
LINE
8
front_outsideCutPath
10
0
20
2.667
11
0.118
21
2.667
0
LINE
8
front_outsideCutPath
10
0.118
20
2.667
11
0.118
21
1.015
0
LINE
8
front_outsideCutPath
10
0.118
20
1.015
11
0
21
1.015
0
LINE
8
front_outsideCutPath
10
0
20
1.015
11
0
21
0.125
0
LINE
8
front_outsideCutPath
10
0
20
0.125
11
1.038
21
0.125
0
LINE
8
front_outsideCutPath
10
1.038
20
0.125
11
1.038
21
0.243
0
LINE
8
front_outsideCutPath
10
1.038
20
0.243
11
2.69
21
0.243
0
LINE
8
front_outsideCutPath
10
2.69
20
0.243
11
2.69
21
0.125
0
LINE
8
front_outsideCutPath
10
2.69
20
0.125
11
4.342
21
0.125
0
LINE
8
front_outsideCutPath
10
4.342
20
0.125
11
4.342
21
0.243
0
LINE
8
front_outsideCutPath
10
4.342
20
0.243
11
5.994
21
0.243
0
LINE
8
front_outsideCutPath
10
5.994
20
0.243
11
5.994
21
0.125
0
LINE
8
front_outsideCutPath
10
5.994
20
0.125
11
7.646
21
0.125
0
LINE
8
front_outsideCutPath
10
7.646
20
0.125
11
7.646
21
0.243
0
LINE
8
front_outsideCutPath
10
7.646
20
0.243
11
9.298
21
0.243
0
LINE
8
front_outsideCutPath
10
9.298
20
0.243
11
9.298
21
0.125
0
LINE
8
front_outsideCutPath
10
9.298
20
0.125
11
10.336
21
0.125
0
LINE
8
front_outsideCutPath
10
10.336
20
0.125
11
10.336
21
1.015
0
LINE
8
front_outsideCutPath
10
10.336
20
1.015
11
10.218
21
1.015
0
LINE
8
front_outsideCutPath
10
10.218
20
1.015
11
10.218
21
2.667
0
LINE
8
front_outsideCutPath
10
10.218
20
2.667
11
10.336
21
2.667
0
LINE
8
front_outsideCutPath
10
10.336
20
2.667
11
10.336
21
4.319
0
LINE
8
front_outsideCutPath
10
10.336
20
4.319
11
10.218
21
4.319
0
LINE
8
front_outsideCutPath
10
10.218
20
4.319
11
10.218
21
5.971
0
LINE
8
front_outsideCutPath
10
10.218
20
5.971
11
10.336
21
5.971
0
LINE
8
front_outsideCutPath
10
10.336
20
5.971
11
10.336
21
6.861
0
LINE
8
front_outsideCutPath
10
10.336
20
6.861
11
9.298
21
6.861
0
LINE
8
front_outsideCutPath
10
9.298
20
6.861
11
9.298
21
6.743
0
LINE
8
front_outsideCutPath
10
9.298
20
6.743
11
7.646
21
6.743
0
LINE
8
front_outsideCutPath
10
7.646
20
6.743
11
7.646
21
6.861
0
LINE
8
front_outsideCutPath
10
7.646
20
6.861
11
5.994
21
6.861
0
LINE
8
front_outsideCutPath
10
5.994
20
6.861
11
5.994
21
6.743
0
LINE
8
front_outsideCutPath
10
5.994
20
6.743
11
4.342
21
6.743
0
LINE
8
front_outsideCutPath
10
4.342
20
6.743
11
4.342
21
6.861
0
LINE
8
front_outsideCutPath
10
4.342
20
6.861
11
2.69
21
6.861
0
LINE
8
front_outsideCutPath
10
2.69
20
6.861
11
2.69
21
6.743
0
LINE
8
front_outsideCutPath
10
2.69
20
6.743
11
1.038
21
6.743
0
LINE
8
front_outsideCutPath
10
1.038
20
6.743
11
1.038
21
6.861
0
LINE
8
front_outsideCutPath
10
1.038
20
6.861
11
0
21
6.861
0
LINE
8
front_labelLayer
10
4.0520211
20
3.7051588
11
4.0520211
21
3.620301
0
LINE
8
front_labelLayer
10
4.0520211
20
3.620301
11
3.8684914
21
3.620301
0
LINE
8
front_labelLayer
10
3.8684914
20
3.620301
11
3.8684914
21
2.9841963
0
LINE
8
front_labelLayer
10
3.8684914
20
2.9841963
11
3.7592945
21
2.9841963
0
LINE
8
front_labelLayer
10
3.7592945
20
2.9841963
11
3.7592945
21
3.620301
0
LINE
8
front_labelLayer
10
3.7592945
20
3.620301
11
3.6303633
21
3.620301
0
LINE
8
front_labelLayer
10
3.6303633
20
3.620301
11
3.6303633
21
3.6696369
0
LINE
8
front_labelLayer
10
3.6303633
20
3.6696369
11
3.7592945
21
3.7091057
0
LINE
8
front_labelLayer
10
3.7592945
20
3.7091057
11
3.7592945
21
3.7492322
0
LINE
8
front_labelLayer
10
4.1256961
20
3.991965
11
4.0974101
21
3.904476
0
LINE
8
front_labelLayer
10
3.8684914
20
3.7518635
11
3.8684914
21
3.7051588
0
LINE
8
front_labelLayer
10
3.8684914
20
3.7051588
11
4.0520211
21
3.7051588
0
ARC
8
front_labelLayer
10
4.2018312
20
3.7543199
40
0.4425659
50
167.577598
51
180.658676
0
ARC
8
front_labelLayer
10
3.9937219
20
3.8028392
40
0.2289064
50
141.7433906
51
168.232267
0
ARC
8
front_labelLayer
10
3.9598375
20
3.8205245
40
0.1914797
50
98.2550651
51
139.6203993
0
ARC
8
front_labelLayer
10
3.9895879
20
3.6830978
40
0.3318962
50
89.6695089
51
99.9316303
0
ARC
8
front_labelLayer
10
3.9896704
20
3.6633389
40
0.3516543
50
81.5642197
51
89.701522
0
ARC
8
front_labelLayer
10
3.964945
20
3.4908566
40
0.5258985
50
75.9741762
51
81.6563262
0
ARC
8
front_labelLayer
10
3.9225671
20
3.3150661
40
0.7067204
50
73.2961514
51
76.09497
0
ARC
8
front_labelLayer
10
3.9332016
20
3.4002469
40
0.5302937
50
71.9615076
51
76.5916798
0
ARC
8
front_labelLayer
10
3.974353
20
3.5748104
40
0.3509461
50
76.518263
51
83.021924
0
ARC
8
front_labelLayer
10
3.9886792
20
3.6900419
40
0.2348279
50
83.075759
51
89.7926737
0
ARC
8
front_labelLayer
10
3.9882083
20
3.7776055
40
0.1472685
50
89.4861925
51
103.4195712
0
ARC
8
front_labelLayer
10
3.9749305
20
3.8286188
40
0.0945728
50
102.7676213
51
144.3380163
0
ARC
8
front_labelLayer
10
4.0016773
20
3.8114093
40
0.1263471
50
145.0687156
51
162.1801484
0
ARC
8
front_labelLayer
10
4.0933909
20
3.7805537
40
0.223107
50
161.8440939
51
171.7848122
0
ARC
8
front_labelLayer
10
4.242966
20
3.7580869
40
0.3743587
50
171.6526732
51
178.4381888
0
ARC
8
front_labelLayer
10
4.3838781
20
3.752072
40
0.5153868
50
178.1967203
51
180.0231765
0
LINE
8
front_labelLayer
10
4.5986633
20
3.7104213
11
4.5835336
21
3.6091182
0
LINE
8
front_labelLayer
10
4.2927804
20
3.37099
11
4.2927804
21
2.9841963
0
LINE
8
front_labelLayer
10
4.2927804
20
2.9841963
11
4.1835836
21
2.9841963
0
LINE
8
front_labelLayer
10
4.1835836
20
2.9841963
11
4.1835836
21
3.7051588
0
LINE
8
front_labelLayer
10
4.1835836
20
3.7051588
11
4.2737039
21
3.7051588
0
LINE
8
front_labelLayer
10
4.2737039
20
3.7051588
11
4.2862023
21
3.5716229
0
LINE
8
front_labelLayer
10
4.2862023
20
3.5716229
11
4.2914648
21
3.5716229
0
ARC
8
front_labelLayer
10
4.5136128
20
3.2170492
40
0.5012671
50
84.9921503
51
90.1283578
0
ARC
8
front_labelLayer
10
4.5256503
20
3.3518924
40
0.3658879
50
78.4893514
51
85.0267309
0
ARC
8
front_labelLayer
10
4.4789154
20
3.1393294
40
0.4812966
50
77.4455417
51
81.6358763
0
ARC
8
front_labelLayer
10
4.4998934
20
3.2839318
40
0.3351809
50
81.5881123
51
87.1919587
0
ARC
8
front_labelLayer
10
4.504444
20
3.362898
40
0.2560875
50
87.3433206
51
89.9659695
0
ARC
8
front_labelLayer
10
4.5033859
20
3.4297833
40
0.1892059
50
89.6335404
51
137.0880779
0
ARC
8
front_labelLayer
10
4.5498811
20
3.3775074
40
0.2589372
50
135.6209441
51
138.8367105
0
ARC
8
front_labelLayer
10
4.543015
20
3.3842085
40
0.2493579
50
138.9574654
51
174.5423249
0
ARC
8
front_labelLayer
10
4.6242107
20
3.3715007
40
0.3314308
50
173.6904373
51
180.0882755
0
ARC
8
front_labelLayer
10
4.6127411
20
3.3906184
40
0.3687561
50
139.4139251
51
150.6034463
0
ARC
8
front_labelLayer
10
4.5466237
20
3.4472749
40
0.2816844
50
124.2320702
51
139.4162275
0
ARC
8
front_labelLayer
10
4.5112725
20
3.5006381
40
0.2176803
50
89.6795792
51
124.4405395
0
ARC
8
front_labelLayer
10
4.7917725
20
3.3415319
40
0.5640458
50
349.1762704
51
0.3863601
0
ARC
8
front_labelLayer
10
4.9816684
20
3.303677
40
0.3704225
50
330.2508662
51
349.411567
0
ARC
8
front_labelLayer
10
5.0401141
20
3.2732998
40
0.3046175
50
318.144073
51
329.7567002
0
ARC
8
front_labelLayer
10
5.0506629
20
3.2648468
40
0.291121
50
278.895888
51
317.9978844
0
ARC
8
front_labelLayer
10
5.0234858
20
3.3950554
40
0.4240193
50
269.7501323
51
279.8032582
0
ARC
8
front_labelLayer
10
5.0190771
20
3.3216922
40
0.3506615
50
253.5436656
51
270.4182293
0
ARC
8
front_labelLayer
10
5.0074008
20
3.2765305
40
0.3040463
50
238.8112621
51
253.2429763
0
ARC
8
front_labelLayer
10
5.0036369
20
3.2689636
40
0.2956249
50
207.7947745
51
238.6758399
0
ARC
8
front_labelLayer
10
5.0576189
20
3.3020314
40
0.3588213
50
205.6555832
51
208.4463503
0
ARC
8
front_labelLayer
10
5.0993299
20
3.3194185
40
0.4039552
50
188.9101546
51
205.3171126
0
ARC
8
front_labelLayer
10
5.2396435
20
3.3431839
40
0.5462594
50
179.7743421
51
189.0933014
0
ARC
8
front_labelLayer
10
5.2603562
20
3.3491747
40
0.5669809
50
169.2443016
51
180.3879821
0
ARC
8
front_labelLayer
10
5.0678094
20
3.3872347
40
0.370717
50
150.7111707
51
169.4696335
0
ARC
8
front_labelLayer
10
5.006338
20
3.4188045
40
0.30167
50
138.1758461
51
150.2290349
0
ARC
8
front_labelLayer
10
4.996122
20
3.4266434
40
0.2888313
50
99.1760267
51
137.9832263
0
ARC
8
front_labelLayer
10
5.0242634
20
3.2941981
40
0.4241215
50
89.7327831
51
100.0758382
0
ARC
8
front_labelLayer
10
5.0298861
20
3.351404
40
0.3669291
50
73.522187
51
90.5691368
0
ARC
8
front_labelLayer
10
5.051405
20
3.4295859
40
0.2858589
50
41.1444956
51
73.2133624
0
ARC
8
front_labelLayer
10
5.0103295
20
3.3942812
40
0.3400203
50
13.5013827
51
41.0703925
0
ARC
8
front_labelLayer
10
4.8516398
20
3.3527529
40
0.5040311
50
1.1275614
51
13.880105
0
ARC
8
front_labelLayer
10
4.7147431
20
3.3454259
40
0.6410623
50
359.9919081
51
1.5415247
0
ARC
8
front_labelLayer
10
5.359499
20
3.3424988
40
0.5529743
50
179.7060973
51
187.9161606
0
ARC
8
front_labelLayer
10
5.1566708
20
3.3133608
40
0.3480673
50
187.7637101
51
200.097917
0
ARC
8
front_labelLayer
10
5.0449556
20
3.2724269
40
0.2290889
50
200.0846572
51
216.913131
0
ARC
8
front_labelLayer
10
5.0041554
20
3.2432939
40
0.1789739
50
217.3009717
51
261.7098413
0
ARC
8
front_labelLayer
10
5.0230967
20
3.3336927
40
0.2712192
50
260.5036906
51
270.2474351
0
ARC
8
front_labelLayer
10
5.0267108
20
3.3160958
40
0.2536316
50
269.4481468
51
284.7258355
0
ARC
8
front_labelLayer
10
5.0467904
20
3.2416336
40
0.1765119
50
284.5660791
51
322.6334631
0
ARC
8
front_labelLayer
10
4.9998441
20
3.2755499
40
0.2344126
50
323.0090369
51
342.6391699
0
ARC
8
front_labelLayer
10
4.8655635
20
3.3194368
40
0.3756759
50
342.3616167
51
353.7535991
0
ARC
8
front_labelLayer
10
4.6674812
20
3.3433133
40
0.5751841
50
353.5361937
51
0.2014216
0
ARC
8
front_labelLayer
10
4.6978386
20
3.3481175
40
0.5448302
50
359.707423
51
7.89737
0
ARC
8
front_labelLayer
10
4.8973542
20
3.3767204
40
0.3432781
50
7.744085
51
20.0688799
0
ARC
8
front_labelLayer
10
5.0085514
20
3.4175253
40
0.2248305
50
20.0255746
51
37.4349861
0
ARC
8
front_labelLayer
10
5.045443
20
3.4437026
40
0.1796321
50
37.9577571
51
80.4006282
0
ARC
8
front_labelLayer
10
5.0244783
20
3.3501629
40
0.2754048
50
79.3452505
51
90.3174758
0
ARC
8
front_labelLayer
10
5.0205972
20
3.3656934
40
0.2598807
50
89.4807626
51
103.8803994
0
ARC
8
front_labelLayer
10
4.9987603
20
3.4488509
40
0.1739175
50
103.4685483
51
142.3119222
0
ARC
8
front_labelLayer
10
5.0412113
20
3.4189956
40
0.2257756
50
142.9024623
51
162.3748703
0
ARC
8
front_labelLayer
10
5.1749744
20
3.3744187
40
0.3667621
50
162.065147
51
173.1673751
0
ARC
8
front_labelLayer
10
5.3835472
20
3.3478181
40
0.5770203
50
173.0087122
51
180.2465273
0
LINE
8
front_labelLayer
10
6.1497851
20
2.9841963
11
6.0405883
21
2.9841963
0
LINE
8
front_labelLayer
10
6.0405883
20
2.9841963
11
6.0405883
21
3.4505854
0
LINE
8
front_labelLayer
10
5.6564258
20
3.3624385
11
5.6564258
21
2.9841963
0
LINE
8
front_labelLayer
10
5.6564258
20
2.9841963
11
5.5472289
21
2.9841963
0
LINE
8
front_labelLayer
10
5.5472289
20
2.9841963
11
5.5472289
21
3.7051588
0
LINE
8
front_labelLayer
10
5.5472289
20
3.7051588
11
5.6360336
21
3.7051588
0
LINE
8
front_labelLayer
10
5.6360336
20
3.7051588
11
5.6537945
21
3.6064869
0
LINE
8
front_labelLayer
10
5.6537945
20
3.6064869
11
5.659057
21
3.6064869
0
LINE
8
front_labelLayer
10
6.1497851
20
3.4545322
11
6.1497851
21
2.9841963
0
ARC
8
front_labelLayer
10
5.7319104
20
3.4523544
40
0.3086829
50
359.6716397
51
8.6876351
0
ARC
8
front_labelLayer
10
5.8463252
20
3.4704986
40
0.1928413
50
8.4933232
51
22.6582606
0
ARC
8
front_labelLayer
10
5.9044448
20
3.4946516
40
0.1299032
50
22.7027303
51
42.3416314
0
ARC
8
front_labelLayer
10
5.9109817
20
3.4975924
40
0.1231109
50
43.3791697
51
71.5386123
0
ARC
8
front_labelLayer
10
5.8865485
20
3.4293186
40
0.1956145
50
71.0828872
51
84.3688345
0
ARC
8
front_labelLayer
10
5.8755828
20
3.336078
40
0.2894864
50
84.0197759
51
90.1510667
0
ARC
8
front_labelLayer
10
5.8724747
20
3.2950725
40
0.3304993
50
89.5935039
51
100.3716345
0
ARC
8
front_labelLayer
10
5.8491178
20
3.4176238
40
0.2057474
50
100.1176258
51
118.1604821
0
ARC
8
front_labelLayer
10
5.8255812
20
3.463775
40
0.1539549
50
118.5438646
51
139.1927879
0
ARC
8
front_labelLayer
10
5.8461043
20
3.4500028
40
0.1785144
50
140.1518029
51
160.314525
0
ARC
8
front_labelLayer
10
5.9700427
20
3.4035824
40
0.3108524
50
159.9536496
51
171.3799182
0
ARC
8
front_labelLayer
10
6.172444
20
3.3710469
40
0.5158471
50
171.1764625
51
178.3220071
0
ARC
8
front_labelLayer
10
6.3556986
20
3.3627332
40
0.6992729
50
178.0807858
51
180.0241468
0
ARC
8
front_labelLayer
10
5.8458544
20
3.4881819
40
0.2211093
50
116.9442188
51
147.6525706
0
ARC
8
front_labelLayer
10
5.86909
20
3.4492483
40
0.266363
50
115.8086871
51
117.6049512
0
ARC
8
front_labelLayer
10
5.8806356
20
3.4222552
40
0.2956933
50
94.3227085
51
115.545547
0
ARC
8
front_labelLayer
10
5.8877153
20
3.360711
40
0.3576042
50
89.9582657
51
94.7105635
0
ARC
8
front_labelLayer
10
5.8906381
20
3.2871966
40
0.4311267
50
80.5585015
51
90.3538187
0
ARC
8
front_labelLayer
10
5.9175808
20
3.4432553
40
0.2727641
50
65.1096593
51
80.7638851
0
ARC
8
front_labelLayer
10
5.9490755
20
3.5130185
40
0.1962267
50
46.5583959
51
64.8781582
0
ARC
8
front_labelLayer
10
5.9515969
20
3.5202854
40
0.1892431
50
19.3849046
51
45.5997848
0
ARC
8
front_labelLayer
10
5.8421128
20
3.4792058
40
0.3061648
50
6.963266
51
19.8362318
0
ARC
8
front_labelLayer
10
5.6732537
20
3.4565021
40
0.4765355
50
359.7631509
51
7.2115371
0
LINE
8
front_labelLayer
10
6.7056367
20
3.0743166
11
6.7056367
21
2.9907744
0
LINE
8
front_labelLayer
10
6.3819929
20
3.1914072
11
6.3819929
21
3.620301
0
LINE
8
front_labelLayer
10
6.3819929
20
3.620301
11
6.2787164
21
3.620301
0
LINE
8
front_labelLayer
10
6.2787164
20
3.620301
11
6.2787164
21
3.672926
0
LINE
8
front_labelLayer
10
6.2787164
20
3.672926
11
6.3819929
21
3.718315
0
LINE
8
front_labelLayer
10
6.3819929
20
3.718315
11
6.4280398
21
3.8722432
0
LINE
8
front_labelLayer
10
6.4280398
20
3.8722432
11
6.4911898
21
3.8722432
0
LINE
8
front_labelLayer
10
6.4911898
20
3.8722432
11
6.4911898
21
3.7051588
0
LINE
8
front_labelLayer
10
6.4911898
20
3.7051588
11
6.7003742
21
3.7051588
0
LINE
8
front_labelLayer
10
6.7003742
20
3.7051588
11
6.7003742
21
3.620301
0
LINE
8
front_labelLayer
10
6.7003742
20
3.620301
11
6.4911898
21
3.620301
0
LINE
8
front_labelLayer
10
6.4911898
20
3.620301
11
6.4911898
21
3.1960119
0
ARC
8
front_labelLayer
10
6.6077123
20
3.4197792
40
0.3586197
50
269.880572
51
278.3029961
0
ARC
8
front_labelLayer
10
6.6102143
20
3.3978245
40
0.3365347
50
278.4212651
51
279.0032641
0
ARC
8
front_labelLayer
10
6.5708296
20
3.6493058
40
0.5910811
50
278.9591605
51
280.5096339
0
ARC
8
front_labelLayer
10
6.6091811
20
3.4434632
40
0.3816963
50
280.4852761
51
282.6257103
0
ARC
8
front_labelLayer
10
6.6428821
20
3.2937063
40
0.2281942
50
282.5875271
51
285.5801259
0
ARC
8
front_labelLayer
10
6.6577053
20
3.2387971
40
0.171322
50
285.7370738
51
286.2466848
0
ARC
8
front_labelLayer
10
6.6597142
20
3.0879086
40
0.1074426
50
287.9899967
51
295.3035386
0
ARC
8
front_labelLayer
10
6.6338375
20
3.1661965
40
0.1898957
50
283.3061584
51
288.1204529
0
ARC
8
front_labelLayer
10
6.6064337
20
3.2805152
40
0.3074527
50
280.0074103
51
283.3727071
0
ARC
8
front_labelLayer
10
6.5885619
20
3.3773211
40
0.4058922
50
279.1834416
51
280.1171566
0
ARC
8
front_labelLayer
10
6.576894
20
3.4437874
40
0.4733696
50
275.5263961
51
279.2936532
0
ARC
8
front_labelLayer
10
6.5895737
20
3.3113548
40
0.3403314
50
270.8928798
51
275.5487957
0
ARC
8
front_labelLayer
10
6.5911464
20
3.253935
40
0.2828949
50
270.0062658
51
270.7556261
0
ARC
8
front_labelLayer
10
6.5867703
20
3.2562122
40
0.2852062
50
253.7849121
51
270.8853775
0
ARC
8
front_labelLayer
10
6.5529815
20
3.1409777
40
0.1651204
50
190.3817663
51
253.8772664
0
ARC
8
front_labelLayer
10
6.725196
20
3.1875432
40
0.3432249
50
179.3549486
51
192.8479817
0
ARC
8
front_labelLayer
10
6.7110798
20
3.1946368
40
0.2198943
50
179.641685
51
189.7502541
0
ARC
8
front_labelLayer
10
6.6334505
20
3.1807921
40
0.1410424
50
189.5480008
51
205.7870835
0
ARC
8
front_labelLayer
10
6.6015454
20
3.1660799
40
0.1059161
50
206.1292842
51
221.408603
0
ARC
8
front_labelLayer
10
6.5979702
20
3.1633666
40
0.1014406
50
221.5947876
51
262.3506868
0
ARC
8
front_labelLayer
10
6.6064763
20
3.2071047
40
0.1459451
50
261.3266071
51
270.1917937
0
LINE
8
left_outsideCutPath
10
10.579
20
6.861
11
10.579
21
5.971
0
LINE
8
left_outsideCutPath
10
10.579
20
5.971
11
10.461
21
5.971
0
LINE
8
left_outsideCutPath
10
10.461
20
5.971
11
10.461
21
4.319
0
LINE
8
left_outsideCutPath
10
10.461
20
4.319
11
10.579
21
4.319
0
LINE
8
left_outsideCutPath
10
10.579
20
4.319
11
10.579
21
2.667
0
LINE
8
left_outsideCutPath
10
10.579
20
2.667
11
10.461
21
2.667
0
LINE
8
left_outsideCutPath
10
10.461
20
2.667
11
10.461
21
1.015
0
LINE
8
left_outsideCutPath
10
10.461
20
1.015
11
10.579
21
1.015
0
LINE
8
left_outsideCutPath
10
10.579
20
1.015
11
10.579
21
0.125
0
LINE
8
left_outsideCutPath
10
10.579
20
0.125
11
11.503
21
0.125
0
LINE
8
left_outsideCutPath
10
11.503
20
0.125
11
11.503
21
0.243
0
LINE
8
left_outsideCutPath
10
11.503
20
0.243
11
13.155
21
0.243
0
LINE
8
left_outsideCutPath
10
13.155
20
0.243
11
13.155
21
0.125
0
LINE
8
left_outsideCutPath
10
13.155
20
0.125
11
14.079
21
0.125
0
LINE
8
left_outsideCutPath
10
14.079
20
0.125
11
14.079
21
1.015
0
LINE
8
left_outsideCutPath
10
14.079
20
1.015
11
14.197
21
1.015
0
LINE
8
left_outsideCutPath
10
14.197
20
1.015
11
14.197
21
2.667
0
LINE
8
left_outsideCutPath
10
14.197
20
2.667
11
14.079
21
2.667
0
LINE
8
left_outsideCutPath
10
14.079
20
2.667
11
14.079
21
4.319
0
LINE
8
left_outsideCutPath
10
14.079
20
4.319
11
14.197
21
4.319
0
LINE
8
left_outsideCutPath
10
14.197
20
4.319
11
14.197
21
5.971
0
LINE
8
left_outsideCutPath
10
14.197
20
5.971
11
14.079
21
5.971
0
LINE
8
left_outsideCutPath
10
14.079
20
5.971
11
14.079
21
6.861
0
LINE
8
left_outsideCutPath
10
14.079
20
6.861
11
13.155
21
6.861
0
LINE
8
left_outsideCutPath
10
13.155
20
6.861
11
13.155
21
6.743
0
LINE
8
left_outsideCutPath
10
13.155
20
6.743
11
11.503
21
6.743
0
LINE
8
left_outsideCutPath
10
11.503
20
6.743
11
11.503
21
6.861
0
LINE
8
left_outsideCutPath
10
11.503
20
6.861
11
10.579
21
6.861
0
LINE
8
left_labelLayer
10
11.8669254
20
3.7784982
11
11.8669254
21
3.2108013
0
LINE
8
left_labelLayer
10
11.8669254
20
3.2108013
11
11.8063613
21
3.2108013
0
LINE
8
left_labelLayer
10
11.8063613
20
3.2108013
11
11.8063613
21
3.7784982
0
LINE
8
left_labelLayer
10
11.8063613
20
3.7784982
11
11.8669254
21
3.7784982
0
LINE
8
left_labelLayer
10
12.3113051
20
3.438099
11
12.3113051
21
3.3997904
0
LINE
8
left_labelLayer
10
12.3113051
20
3.3997904
11
12.035848
21
3.3997904
0
LINE
8
left_labelLayer
10
12.2941574
20
3.2834052
11
12.2941574
21
3.2294084
0
LINE
8
left_labelLayer
10
12.0373074
20
3.4490443
11
12.2463629
21
3.4490443
0
ARC
8
left_labelLayer
10
12.1622817
20
3.4388493
40
0.2353532
50
256.0090234
51
270.4847945
0
ARC
8
left_labelLayer
10
12.1451431
20
3.3723111
40
0.1666462
50
223.5465451
51
256.1958238
0
ARC
8
left_labelLayer
10
12.1545969
20
3.3791831
40
0.1782394
50
194.0877627
51
223.0539994
0
ARC
8
left_labelLayer
10
12.2412332
20
3.402874
40
0.268043
50
181.3577429
51
194.4918619
0
ARC
8
left_labelLayer
10
12.3193103
20
3.407384
40
0.3462152
50
179.9887213
51
181.7977291
0
ARC
8
left_labelLayer
10
12.2911021
20
3.4095854
40
0.3180143
50
168.9537129
51
180.384353
0
ARC
8
left_labelLayer
10
12.1872434
20
3.4307342
40
0.2120295
50
149.4070354
51
169.1854027
0
ARC
8
left_labelLayer
10
12.158302
20
3.4460271
40
0.1793404
50
140.1056345
51
148.9070133
0
ARC
8
left_labelLayer
10
12.1405271
20
3.4624151
40
0.1551964
50
92.4761802
51
140.5386967
0
ARC
8
left_labelLayer
10
12.1484466
20
3.4039409
40
0.214026
50
89.9630228
51
93.9181502
0
ARC
8
left_labelLayer
10
12.1503398
20
3.4334593
40
0.184516
50
74.2126037
51
90.5449743
0
ARC
8
left_labelLayer
10
12.1618968
20
3.4760404
40
0.1403976
50
41.2063787
51
74.0232857
0
ARC
8
left_labelLayer
10
12.1400104
20
3.4570992
40
0.1693418
50
11.599372
51
41.1495791
0
ARC
8
left_labelLayer
10
12.0648113
20
3.4397564
40
0.2464994
50
359.6147615
51
12.033695
0
ARC
8
left_labelLayer
10
12.2788776
20
3.4046457
40
0.2430781
50
181.1445215
51
190.8006723
0
ARC
8
left_labelLayer
10
12.1931209
20
3.3877315
40
0.1556718
50
190.6003064
51
206.0276682
0
ARC
8
left_labelLayer
10
12.1551828
20
3.3697959
40
0.1137122
50
206.2951338
51
222.5559317
0
ARC
8
left_labelLayer
10
12.1518216
20
3.3680362
40
0.1100507
50
223.0645772
51
258.1399443
0
ARC
8
left_labelLayer
10
12.1652051
20
3.4231519
40
0.1667497
50
257.5316475
51
270.4319045
0
ARC
8
left_labelLayer
10
12.1653551
20
3.5762752
40
0.3198703
50
270.1982973
51
292.2090742
0
ARC
8
left_labelLayer
10
12.1498073
20
3.6208337
40
0.367008
50
291.8268617
51
293.1609901
0
ARC
8
left_labelLayer
10
12.1492467
20
3.5629019
40
0.3636166
50
287.902669
51
293.4860767
0
ARC
8
left_labelLayer
10
12.1756373
20
3.4814761
40
0.2780209
50
281.9936526
51
287.8856781
0
ARC
8
left_labelLayer
10
12.1820273
20
3.4585149
40
0.2542372
50
275.9051714
51
281.6603202
0
ARC
8
left_labelLayer
10
12.1692342
20
3.577889
40
0.3742944
50
271.9115373
51
275.9730952
0
ARC
8
left_labelLayer
10
12.1645578
20
3.6970096
40
0.4935052
50
269.9669349
51
271.9928425
0
ARC
8
left_labelLayer
10
12.1466928
20
3.4478761
40
0.1193832
50
89.4421996
51
106.2092942
0
ARC
8
left_labelLayer
10
12.1395107
20
3.4740613
40
0.0922351
50
106.4657776
51
137.917631
0
ARC
8
left_labelLayer
10
12.1601012
20
3.455979
40
0.1196363
50
138.0993399
51
160.586802
0
ARC
8
left_labelLayer
10
12.2130465
20
3.4365027
40
0.1760466
50
160.3358142
51
172.531153
0
ARC
8
left_labelLayer
10
12.2649434
20
3.4281791
40
0.2285902
50
172.1534103
51
174.7628852
0
ARC
8
left_labelLayer
10
12.0399836
20
3.4502155
40
0.2063826
50
359.6748366
51
8.9226856
0
ARC
8
left_labelLayer
10
12.1137381
20
3.4622345
40
0.1316574
50
8.7337686
51
23.2776637
0
ARC
8
left_labelLayer
10
12.148739
20
3.4769281
40
0.0936994
50
23.4821373
51
39.7071227
0
ARC
8
left_labelLayer
10
12.1573382
20
3.4833622
40
0.0829751
50
40.0826364
51
80.6239113
0
ARC
8
left_labelLayer
10
12.1484872
20
3.4427803
40
0.1244749
50
79.6473954
51
90.290958
0
LINE
8
left_labelLayer
10
12.5947887
20
3.6106701
11
12.5947887
21
3.5636052
0
LINE
8
left_labelLayer
10
12.5947887
20
3.5636052
11
12.4929973
21
3.5636052
0
LINE
8
left_labelLayer
10
12.4929973
20
3.5636052
11
12.4929973
21
3.2108013
0
LINE
8
left_labelLayer
10
12.4929973
20
3.2108013
11
12.4324332
21
3.2108013
0
LINE
8
left_labelLayer
10
12.4324332
20
3.2108013
11
12.4324332
21
3.5636052
0
LINE
8
left_labelLayer
10
12.4324332
20
3.5636052
11
12.3609238
21
3.5636052
0
LINE
8
left_labelLayer
10
12.3609238
20
3.5636052
11
12.3609238
21
3.5909685
0
LINE
8
left_labelLayer
10
12.3609238
20
3.5909685
11
12.4324332
21
3.6128591
0
LINE
8
left_labelLayer
10
12.4324332
20
3.6128591
11
12.4324332
21
3.6351146
0
LINE
8
left_labelLayer
10
12.6356512
20
3.769742
11
12.6199629
21
3.7212177
0
LINE
8
left_labelLayer
10
12.4929973
20
3.636574
11
12.4929973
21
3.6106701
0
LINE
8
left_labelLayer
10
12.4929973
20
3.6106701
11
12.5947887
21
3.6106701
0
ARC
8
left_labelLayer
10
12.6778811
20
3.6379364
40
0.2454641
50
167.5777435
51
180.6586671
0
ARC
8
left_labelLayer
10
12.5624561
20
3.6648458
40
0.126961
50
141.7436454
51
168.232054
0
ARC
8
left_labelLayer
10
12.5436607
20
3.6746554
40
0.1062009
50
98.2550558
51
139.6203143
0
ARC
8
left_labelLayer
10
12.5601608
20
3.5984326
40
0.1840818
50
89.6693604
51
99.9313891
0
ARC
8
left_labelLayer
10
12.5602093
20
3.5874964
40
0.1950177
50
81.5639902
51
89.7021714
0
ARC
8
left_labelLayer
10
12.5464922
20
3.4918098
40
0.2916816
50
75.9739839
51
81.6561016
0
ARC
8
left_labelLayer
10
12.5229862
20
3.3943068
40
0.3919757
50
73.295942
51
76.094717
0
ARC
8
left_labelLayer
10
12.5288938
20
3.4415838
40
0.2940897
50
71.9610023
51
76.5916182
0
ARC
8
left_labelLayer
10
12.551705
20
3.5383388
40
0.1946824
50
76.5188769
51
83.0213181
0
ARC
8
left_labelLayer
10
12.5596592
20
3.602307
40
0.1302217
50
83.0755046
51
89.7935181
0
ARC
8
left_labelLayer
10
12.5593965
20
3.6508522
40
0.081679
50
89.4865139
51
103.4200297
0
ARC
8
left_labelLayer
10
12.5520313
20
3.6791454
40
0.0524525
50
102.7672768
51
144.3381788
0
ARC
8
left_labelLayer
10
12.5668646
20
3.669601
40
0.0700741
50
145.0685076
51
162.1804373
0
ARC
8
left_labelLayer
10
12.6177278
20
3.6524871
40
0.1237364
50
161.8434861
51
171.784679
0
ARC
8
left_labelLayer
10
12.7006703
20
3.6400281
40
0.2076086
50
171.652446
51
178.4387028
0
ARC
8
left_labelLayer
10
12.7787226
20
3.6366897
40
0.2857255
50
178.19595
51
180.0232022
0
LINE
8
left_labelLayer
10
12.8516387
20
3.2607849
11
12.8516387
21
3.2144498
0
LINE
8
left_labelLayer
10
12.6721355
20
3.3257271
11
12.6721355
21
3.5636052
0
LINE
8
left_labelLayer
10
12.6721355
20
3.5636052
11
12.6148551
21
3.5636052
0
LINE
8
left_labelLayer
10
12.6148551
20
3.5636052
11
12.6148551
21
3.5927927
0
LINE
8
left_labelLayer
10
12.6148551
20
3.5927927
11
12.6721355
21
3.617967
0
LINE
8
left_labelLayer
10
12.6721355
20
3.617967
11
12.6976746
21
3.7033404
0
LINE
8
left_labelLayer
10
12.6976746
20
3.7033404
11
12.7326996
21
3.7033404
0
LINE
8
left_labelLayer
10
12.7326996
20
3.7033404
11
12.7326996
21
3.6106701
0
LINE
8
left_labelLayer
10
12.7326996
20
3.6106701
11
12.8487199
21
3.6106701
0
LINE
8
left_labelLayer
10
12.8487199
20
3.6106701
11
12.8487199
21
3.5636052
0
LINE
8
left_labelLayer
10
12.8487199
20
3.5636052
11
12.7326996
21
3.5636052
0
LINE
8
left_labelLayer
10
12.7326996
20
3.5636052
11
12.7326996
21
3.328281
0
ARC
8
left_labelLayer
10
12.7973288
20
3.4523819
40
0.1988943
50
269.879971
51
278.3027232
0
ARC
8
left_labelLayer
10
12.8001782
20
3.4306624
40
0.1769911
50
278.4052781
51
279.0190481
0
ARC
8
left_labelLayer
10
12.7768294
20
3.5799177
40
0.3280614
50
278.960093
51
280.5094837
0
ARC
8
left_labelLayer
10
12.7981221
20
3.4656151
40
0.2117926
50
280.4859851
51
282.6254925
0
ARC
8
left_labelLayer
10
12.8167913
20
3.382636
40
0.1267394
50
282.5891204
51
285.5775732
0
ARC
8
left_labelLayer
10
12.8260738
20
3.348389
40
0.0912579
50
285.7378096
51
286.2684322
0
ARC
8
left_labelLayer
10
12.8261594
20
3.268348
40
0.0596173
50
287.9911622
51
295.3014863
0
ARC
8
left_labelLayer
10
12.8118262
20
3.3117096
40
0.1052861
50
283.305408
51
288.1213555
0
ARC
8
left_labelLayer
10
12.7966214
20
3.3751368
40
0.1705101
50
280.0068716
51
283.3724239
0
ARC
8
left_labelLayer
10
12.7867569
20
3.4285258
40
0.2248015
50
279.1832592
51
280.1183002
0
ARC
8
left_labelLayer
10
12.7802481
20
3.46559
40
0.2624299
50
275.5257286
51
279.2946507
0
ARC
8
left_labelLayer
10
12.7872694
20
3.3921924
40
0.1886972
50
270.8922807
51
275.5497137
0
ARC
8
left_labelLayer
10
12.7881474
20
3.3595999
40
0.1560953
50
270.0031193
51
270.7563546
0
ARC
8
left_labelLayer
10
12.7857114
20
3.3616655
40
0.15818
50
253.784525
51
270.8854727
0
ARC
8
left_labelLayer
10
12.7669715
20
3.2977575
40
0.0915813
50
190.3818657
51
253.8771281
0
ARC
8
left_labelLayer
10
12.8624905
20
3.3235837
40
0.1903669
50
179.3548656
51
192.8476437
0
ARC
8
left_labelLayer
10
12.8546357
20
3.3275172
40
0.1219385
50
179.641097
51
189.7514802
0
ARC
8
left_labelLayer
10
12.8116025
20
3.3198399
40
0.0782273
50
189.548155
51
205.7871009
0
ARC
8
left_labelLayer
10
12.7939051
20
3.3116788
40
0.058743
50
206.1289482
51
221.4086646
0
ARC
8
left_labelLayer
10
12.7919238
20
3.3101755
40
0.0562629
50
221.5949715
51
262.3503378
0
ARC
8
left_labelLayer
10
12.7966431
20
3.3344472
40
0.0809597
50
261.3266853
51
270.1903553
0
LINE
8
top_outsideCutPath
10
14.44
20
3.743
11
14.44
21
2.819
0
LINE
8
top_outsideCutPath
10
14.44
20
2.819
11
14.322
21
2.819
0
LINE
8
top_outsideCutPath
10
14.322
20
2.819
11
14.322
21
1.167
0
LINE
8
top_outsideCutPath
10
14.322
20
1.167
11
14.44
21
1.167
0
LINE
8
top_outsideCutPath
10
14.44
20
1.167
11
14.44
21
0.243
0
LINE
8
top_outsideCutPath
10
14.44
20
0.243
11
15.36
21
0.243
0
LINE
8
top_outsideCutPath
10
15.36
20
0.243
11
15.36
21
0.125
0
LINE
8
top_outsideCutPath
10
15.36
20
0.125
11
17.012
21
0.125
0
LINE
8
top_outsideCutPath
10
17.012
20
0.125
11
17.012
21
0.243
0
LINE
8
top_outsideCutPath
10
17.012
20
0.243
11
18.664
21
0.243
0
LINE
8
top_outsideCutPath
10
18.664
20
0.243
11
18.664
21
0.125
0
LINE
8
top_outsideCutPath
10
18.664
20
0.125
11
20.316
21
0.125
0
LINE
8
top_outsideCutPath
10
20.316
20
0.125
11
20.316
21
0.243
0
LINE
8
top_outsideCutPath
10
20.316
20
0.243
11
21.968
21
0.243
0
LINE
8
top_outsideCutPath
10
21.968
20
0.243
11
21.968
21
0.125
0
LINE
8
top_outsideCutPath
10
21.968
20
0.125
11
23.62
21
0.125
0
LINE
8
top_outsideCutPath
10
23.62
20
0.125
11
23.62
21
0.243
0
LINE
8
top_outsideCutPath
10
23.62
20
0.243
11
24.54
21
0.243
0
LINE
8
top_outsideCutPath
10
24.54
20
0.243
11
24.54
21
1.167
0
LINE
8
top_outsideCutPath
10
24.54
20
1.167
11
24.658
21
1.167
0
LINE
8
top_outsideCutPath
10
24.658
20
1.167
11
24.658
21
2.819
0
LINE
8
top_outsideCutPath
10
24.658
20
2.819
11
24.54
21
2.819
0
LINE
8
top_outsideCutPath
10
24.54
20
2.819
11
24.54
21
3.743
0
LINE
8
top_outsideCutPath
10
24.54
20
3.743
11
23.62
21
3.743
0
LINE
8
top_outsideCutPath
10
23.62
20
3.743
11
23.62
21
3.861
0
LINE
8
top_outsideCutPath
10
23.62
20
3.861
11
21.968
21
3.861
0
LINE
8
top_outsideCutPath
10
21.968
20
3.861
11
21.968
21
3.743
0
LINE
8
top_outsideCutPath
10
21.968
20
3.743
11
20.316
21
3.743
0
LINE
8
top_outsideCutPath
10
20.316
20
3.743
11
20.316
21
3.861
0
LINE
8
top_outsideCutPath
10
20.316
20
3.861
11
18.664
21
3.861
0
LINE
8
top_outsideCutPath
10
18.664
20
3.861
11
18.664
21
3.743
0
LINE
8
top_outsideCutPath
10
18.664
20
3.743
11
17.012
21
3.743
0
LINE
8
top_outsideCutPath
10
17.012
20
3.743
11
17.012
21
3.861
0
LINE
8
top_outsideCutPath
10
17.012
20
3.861
11
15.36
21
3.861
0
LINE
8
top_outsideCutPath
10
15.36
20
3.861
11
15.36
21
3.743
0
LINE
8
top_outsideCutPath
10
15.36
20
3.743
11
14.44
21
3.743
0
LINE
8
top_labelLayer
10
19.1667454
20
1.8864656
11
19.1667454
21
1.8401305
0
LINE
8
top_labelLayer
10
18.9872422
20
1.9514078
11
18.9872422
21
2.1892859
0
LINE
8
top_labelLayer
10
18.9872422
20
2.1892859
11
18.9299618
21
2.1892859
0
LINE
8
top_labelLayer
10
18.9299618
20
2.1892859
11
18.9299618
21
2.2184734
0
LINE
8
top_labelLayer
10
18.9299618
20
2.2184734
11
18.9872422
21
2.2436477
0
LINE
8
top_labelLayer
10
18.9872422
20
2.2436477
11
19.0127813
21
2.3290211
0
LINE
8
top_labelLayer
10
19.0127813
20
2.3290211
11
19.0478063
21
2.3290211
0
LINE
8
top_labelLayer
10
19.0478063
20
2.3290211
11
19.0478063
21
2.2363508
0
LINE
8
top_labelLayer
10
19.0478063
20
2.2363508
11
19.1638266
21
2.2363508
0
LINE
8
top_labelLayer
10
19.1638266
20
2.2363508
11
19.1638266
21
2.1892859
0
LINE
8
top_labelLayer
10
19.1638266
20
2.1892859
11
19.0478063
21
2.1892859
0
LINE
8
top_labelLayer
10
19.0478063
20
2.1892859
11
19.0478063
21
1.9539617
0
ARC
8
top_labelLayer
10
19.1124355
20
2.0780626
40
0.1988943
50
269.879971
51
278.3027232
0
ARC
8
top_labelLayer
10
19.1152849
20
2.0563431
40
0.1769911
50
278.4052781
51
279.0190481
0
ARC
8
top_labelLayer
10
19.0919361
20
2.2055984
40
0.3280614
50
278.960093
51
280.5094837
0
ARC
8
top_labelLayer
10
19.1132287
20
2.0912958
40
0.2117926
50
280.4859851
51
282.6254925
0
ARC
8
top_labelLayer
10
19.131898
20
2.0083167
40
0.1267394
50
282.5891204
51
285.5775732
0
ARC
8
top_labelLayer
10
19.1411805
20
1.9740697
40
0.0912579
50
285.7378096
51
286.2684322
0
ARC
8
top_labelLayer
10
19.141266
20
1.8940287
40
0.0596173
50
287.9911622
51
295.3014863
0
ARC
8
top_labelLayer
10
19.1269329
20
1.9373903
40
0.1052861
50
283.305408
51
288.1213555
0
ARC
8
top_labelLayer
10
19.1117281
20
2.0008175
40
0.1705101
50
280.0068716
51
283.3724239
0
ARC
8
top_labelLayer
10
19.1018636
20
2.0542065
40
0.2248015
50
279.1832592
51
280.1183002
0
ARC
8
top_labelLayer
10
19.0953548
20
2.0912707
40
0.2624299
50
275.5257286
51
279.2946507
0
ARC
8
top_labelLayer
10
19.1023761
20
2.0178731
40
0.1886972
50
270.8922807
51
275.5497137
0
ARC
8
top_labelLayer
10
19.103254
20
1.9852806
40
0.1560953
50
270.0031193
51
270.7563546
0
ARC
8
top_labelLayer
10
19.1008181
20
1.9873462
40
0.15818
50
253.784525
51
270.8854727
0
ARC
8
top_labelLayer
10
19.0820782
20
1.9234382
40
0.0915813
50
190.3818657
51
253.8771281
0
ARC
8
top_labelLayer
10
19.1775972
20
1.9492644
40
0.1903669
50
179.3548656
51
192.8476437
0
ARC
8
top_labelLayer
10
19.1697424
20
1.9531979
40
0.1219385
50
179.641097
51
189.7514802
0
ARC
8
top_labelLayer
10
19.1267092
20
1.9455206
40
0.0782273
50
189.548155
51
205.7871009
0
ARC
8
top_labelLayer
10
19.1090118
20
1.9373595
40
0.058743
50
206.1289482
51
221.4086646
0
ARC
8
top_labelLayer
10
19.1070305
20
1.9358562
40
0.0562629
50
221.5949715
51
262.3503378
0
ARC
8
top_labelLayer
10
19.1117498
20
1.9601279
40
0.0809597
50
261.3266853
51
270.1903553
0
ARC
8
top_labelLayer
10
19.2789526
20
2.0346722
40
0.3128429
50
349.1763562
51
0.3862616
0
ARC
8
top_labelLayer
10
19.3842796
20
2.0136767
40
0.2054486
50
330.2508152
51
349.4114651
0
ARC
8
top_labelLayer
10
19.4166954
20
1.9968295
40
0.1689516
50
318.143808
51
329.7563532
0
ARC
8
top_labelLayer
10
19.4225465
20
1.9921396
40
0.1614649
50
278.8959136
51
317.9979231
0
ARC
8
top_labelLayer
10
19.4074716
20
2.0643719
40
0.235189
50
269.7505527
51
279.803064
0
ARC
8
top_labelLayer
10
19.4050273
20
2.023664
40
0.194484
50
253.5435396
51
270.41846
0
ARC
8
top_labelLayer
10
19.398554
20
1.998627
40
0.1686412
50
238.8119461
51
253.2430344
0
ARC
8
top_labelLayer
10
19.3964642
20
1.9944224
40
0.1639623
50
207.7946296
51
238.6758097
0
ARC
8
top_labelLayer
10
19.4264076
20
2.0127691
40
0.1990191
50
205.6566603
51
208.4473539
0
ARC
8
top_labelLayer
10
19.4495384
20
2.0224072
40
0.2240461
50
188.9102405
51
205.3172245
0
ARC
8
top_labelLayer
10
19.5273794
20
2.0355899
40
0.3029911
50
179.7747123
51
189.0931101
0
ARC
8
top_labelLayer
10
19.5388525
20
2.0389102
40
0.3144691
50
169.2443409
51
180.3878994
0
ARC
8
top_labelLayer
10
19.432054
20
2.0600205
40
0.2056088
50
150.7109403
51
169.4696405
0
ARC
8
top_labelLayer
10
19.3979636
20
2.0775285
40
0.1673172
50
138.1757886
51
150.2288708
0
ARC
8
top_labelLayer
10
19.3922962
20
2.0818771
40
0.1601949
50
99.1759159
51
137.983122
0
ARC
8
top_labelLayer
10
19.407905
20
2.0084141
40
0.2352362
50
89.7329031
51
100.0757438
0
ARC
8
top_labelLayer
10
19.4110234
20
2.0401439
40
0.2035138
50
73.5225137
51
90.5692004
0
ARC
8
top_labelLayer
10
19.4229573
20
2.083508
40
0.1585479
50
41.1446346
51
73.2132014
0
ARC
8
top_labelLayer
10
19.4001736
20
2.0639267
40
0.1885892
50
13.5016274
51
41.0701756
0
ARC
8
top_labelLayer
10
19.312155
20
2.0408935
40
0.2795589
50
1.1278932
51
13.8801107
0
ARC
8
top_labelLayer
10
19.2365735
20
2.0368314
40
0.3552149
50
359.9919062
51
1.5430005
0
ARC
8
top_labelLayer
10
19.5938463
20
2.0352073
40
0.3067065
50
179.705974
51
187.9157881
0
ARC
8
top_labelLayer
10
19.4813462
20
2.019048
40
0.1930536
50
187.7638014
51
200.0977304
0
ARC
8
top_labelLayer
10
19.4193799
20
1.9963435
40
0.1270587
50
200.0846481
51
216.9132957
0
ARC
8
top_labelLayer
10
19.3967516
20
1.9801853
40
0.099264
50
217.3008954
51
261.7100205
0
ARC
8
top_labelLayer
10
19.4072569
20
2.0303185
40
0.1504215
50
260.5035471
51
270.2476365
0
ARC
8
top_labelLayer
10
19.4092612
20
2.0205678
40
0.1406759
50
269.4484752
51
284.7257517
0
ARC
8
top_labelLayer
10
19.4203978
20
1.9792662
40
0.0979006
50
284.5664053
51
322.6331779
0
ARC
8
top_labelLayer
10
19.3943617
20
1.9980755
40
0.1300116
50
323.0089922
51
342.6392868
0
ARC
8
top_labelLayer
10
19.3198809
20
2.0224174
40
0.2083653
50
342.3618482
51
353.7536354
0
ARC
8
top_labelLayer
10
19.2100278
20
2.0356581
40
0.3190092
50
353.536366
51
0.2017219
0
ARC
8
top_labelLayer
10
19.2268491
20
2.0383223
40
0.30219
50
359.7078089
51
7.8974867
0
ARC
8
top_labelLayer
10
19.3375161
20
2.0541886
40
0.1903935
50
7.7440036
51
20.0687674
0
ARC
8
top_labelLayer
10
19.3991868
20
2.0768176
40
0.1247022
50
20.0260933
51
37.4349267
0
ARC
8
top_labelLayer
10
19.4196519
20
2.0913398
40
0.0996288
50
37.9575311
51
80.4008238
0
ARC
8
top_labelLayer
10
19.4080237
20
2.0394605
40
0.1527466
50
79.3451221
51
90.3174696
0
ARC
8
top_labelLayer
10
19.4058708
20
2.0480781
40
0.1441325
50
89.4806009
51
103.8808021
0
ARC
8
top_labelLayer
10
19.3937596
20
2.0941945
40
0.09646
50
103.4684933
51
142.3119692
0
ARC
8
top_labelLayer
10
19.4173071
20
2.0776347
40
0.125225
50
142.9028892
51
162.3748649
0
ARC
8
top_labelLayer
10
19.4914876
20
2.0529127
40
0.2034119
50
162.0648734
51
173.1674342
0
ARC
8
top_labelLayer
10
19.6071591
20
2.0381575
40
0.3200184
50
173.0082407
51
180.2464071
0
LINE
8
top_labelLayer
10
19.7585219
20
1.887925
11
19.7541438
21
1.887925
0
LINE
8
top_labelLayer
10
19.7585219
20
1.8215234
11
19.7585219
21
1.6569789
0
LINE
8
top_labelLayer
10
19.7585219
20
1.6569789
11
19.6979579
21
1.6569789
0
LINE
8
top_labelLayer
10
19.6979579
20
1.6569789
11
19.6979579
21
2.2363508
0
LINE
8
top_labelLayer
10
19.6979579
20
2.2363508
11
19.7472118
21
2.2363508
0
LINE
8
top_labelLayer
10
19.7472118
20
2.2363508
11
19.7556032
21
2.1816242
0
LINE
8
top_labelLayer
10
19.7556032
20
2.1816242
11
19.7585219
21
2.1816242
0
LINE
8
top_labelLayer
10
19.7585219
20
2.0502805
11
19.7585219
21
2.0367812
0
ARC
8
top_labelLayer
10
19.8830076
20
2.0128942
40
0.1837119
50
255.7759091
51
270.3182813
0
ARC
8
top_labelLayer
10
19.877769
20
1.9896071
40
0.1598528
50
245.9804465
51
255.5450792
0
ARC
8
top_labelLayer
10
19.8676102
20
1.9659813
40
0.1341382
50
215.5849908
51
245.8362081
0
ARC
8
top_labelLayer
10
19.1855755
20
1.8160753
40
0.5730902
50
2.9499842
51
7.2022635
0
ARC
8
top_labelLayer
10
19.2781783
20
1.8212525
40
0.4803438
50
0.0323136
51
2.9017177
0
ARC
8
top_labelLayer
10
19.8919275
20
2.0879338
40
0.1630182
50
132.3561519
51
144.9197253
0
ARC
8
top_labelLayer
10
19.8669581
20
2.1151759
40
0.1260644
50
115.4004873
51
132.3117617
0
ARC
8
top_labelLayer
10
19.8767008
20
2.0914583
40
0.1516745
50
97.7067829
51
114.8819845
0
ARC
8
top_labelLayer
10
19.8835034
20
2.0473401
40
0.1963082
50
89.8468351
51
97.9475004
0
ARC
8
top_labelLayer
10
19.8859037
20
2.0580236
40
0.1856336
50
74.1865486
51
90.578897
0
ARC
8
top_labelLayer
10
19.8987486
20
2.1047094
40
0.1372147
50
38.0523211
51
74.034807
0
ARC
8
top_labelLayer
10
19.8633179
20
2.0775532
40
0.1818537
50
16.3356052
51
37.909064
0
ARC
8
top_labelLayer
10
19.7702576
20
2.048888
40
0.2792229
50
4.5763305
51
16.6092541
0
ARC
8
top_labelLayer
10
19.6557007
20
2.0374694
40
0.394332
50
359.9000119
51
4.9020918
0
ARC
8
top_labelLayer
10
19.6949326
20
2.0346874
40
0.3551057
50
350.65622
51
0.3378471
0
ARC
8
top_labelLayer
10
19.81873
20
2.0136309
40
0.2295333
50
335.8305479
51
350.8253526
0
ARC
8
top_labelLayer
10
19.8731822
20
1.9901283
40
0.1702338
50
321.3165306
51
335.5436718
0
ARC
8
top_labelLayer
10
19.8940043
20
1.9731625
40
0.1433759
50
274.0640339
51
321.4082519
0
ARC
8
top_labelLayer
10
19.8843039
20
2.034618
40
0.2054331
50
269.9231081
51
275.5481334
0
ARC
8
top_labelLayer
10
19.8740245
20
2.0177045
40
0.1745046
50
89.5904138
51
100.3504055
0
ARC
8
top_labelLayer
10
19.8615799
20
2.0830766
40
0.1079616
50
100.0867352
51
118.1923895
0
ARC
8
top_labelLayer
10
19.8488311
20
2.1079369
40
0.0800295
50
118.5564503
51
141.0246811
0
ARC
8
top_labelLayer
10
19.8682544
20
2.0942349
40
0.1037596
50
141.888789
51
160.597807
0
ARC
8
top_labelLayer
10
19.9365066
20
2.0691882
40
0.1764588
50
160.2889928
51
171.2458738
0
ARC
8
top_labelLayer
10
20.0487778
20
2.0510866
40
0.2901782
50
171.0871897
51
178.324841
0
ARC
8
top_labelLayer
10
20.1427776
20
2.0465874
40
0.3842735
50
178.0640048
51
179.4493497
0
ARC
8
top_labelLayer
10
20.1589902
20
2.0352193
40
0.4004714
50
179.7765358
51
185.7073969
0
ARC
8
top_labelLayer
10
20.0010655
20
2.0189472
40
0.2417118
50
185.5921537
51
194.2053515
0
ARC
8
top_labelLayer
10
19.8999429
20
1.9927
40
0.1372417
50
193.942604
51
208.0217089
0
ARC
8
top_labelLayer
10
19.8590169
20
1.971879
40
0.0913354
50
208.5531449
51
217.5609935
0
ARC
8
top_labelLayer
10
19.8556912
20
1.9704979
40
0.0878621
50
218.1691408
51
253.8047653
0
ARC
8
top_labelLayer
10
19.8719882
20
2.0207457
40
0.140671
50
253.1385543
51
266.8482705
0
ARC
8
top_labelLayer
10
19.8765549
20
2.0745399
40
0.1946415
50
266.3766517
51
270.0519279
0
ARC
8
top_labelLayer
10
19.8781098
20
1.9819398
40
0.1020507
50
269.2260089
51
292.0427758
0
ARC
8
top_labelLayer
10
19.8794865
20
1.9737329
40
0.0939443
50
293.1430677
51
324.1350367
0
ARC
8
top_labelLayer
10
19.859178
20
1.9909502
40
0.120507
50
323.1580964
51
325.0145889
0
ARC
8
top_labelLayer
10
19.8371255
20
2.0046347
40
0.1464277
50
325.575127
51
344.1503767
0
ARC
8
top_labelLayer
10
19.7613512
20
2.0270351
40
0.2254404
50
343.9333945
51
355.1135418
0
ARC
8
top_labelLayer
10
19.6646205
20
2.0368516
40
0.3226594
50
354.8398616
51
0.1170778
0
ARC
8
top_labelLayer
10
19.681684
20
2.0390547
40
0.3055988
50
359.710557
51
7.861447
0
ARC
8
top_labelLayer
10
19.7927807
20
2.0548934
40
0.1933806
50
7.715007
51
19.8858362
0
ARC
8
top_labelLayer
10
19.8538985
20
2.0769693
40
0.128398
50
19.8989972
51
35.8977942
0
ARC
8
top_labelLayer
10
19.8811598
20
2.0976142
40
0.0942125
50
35.4482214
51
85.2267247
0
ARC
8
top_labelLayer
10
19.8754648
20
2.061922
40
0.1302829
50
84.0369756
51
90.0848408
0
LINE
8
back_outsideCutPath
10
0
20
13.722
11
0
21
12.832
0
LINE
8
back_outsideCutPath
10
0
20
12.832
11
0.118
21
12.832
0
LINE
8
back_outsideCutPath
10
0.118
20
12.832
11
0.118
21
11.18
0
LINE
8
back_outsideCutPath
10
0.118
20
11.18
11
0
21
11.18
0
LINE
8
back_outsideCutPath
10
0
20
11.18
11
0
21
9.528
0
LINE
8
back_outsideCutPath
10
0
20
9.528
11
0.118
21
9.528
0
LINE
8
back_outsideCutPath
10
0.118
20
9.528
11
0.118
21
7.876
0
LINE
8
back_outsideCutPath
10
0.118
20
7.876
11
0
21
7.876
0
LINE
8
back_outsideCutPath
10
0
20
7.876
11
0
21
6.986
0
LINE
8
back_outsideCutPath
10
0
20
6.986
11
1.038
21
6.986
0
LINE
8
back_outsideCutPath
10
1.038
20
6.986
11
1.038
21
7.104
0
LINE
8
back_outsideCutPath
10
1.038
20
7.104
11
2.69
21
7.104
0
LINE
8
back_outsideCutPath
10
2.69
20
7.104
11
2.69
21
6.986
0
LINE
8
back_outsideCutPath
10
2.69
20
6.986
11
4.342
21
6.986
0
LINE
8
back_outsideCutPath
10
4.342
20
6.986
11
4.342
21
7.104
0
LINE
8
back_outsideCutPath
10
4.342
20
7.104
11
5.994
21
7.104
0
LINE
8
back_outsideCutPath
10
5.994
20
7.104
11
5.994
21
6.986
0
LINE
8
back_outsideCutPath
10
5.994
20
6.986
11
7.646
21
6.986
0
LINE
8
back_outsideCutPath
10
7.646
20
6.986
11
7.646
21
7.104
0
LINE
8
back_outsideCutPath
10
7.646
20
7.104
11
9.298
21
7.104
0
LINE
8
back_outsideCutPath
10
9.298
20
7.104
11
9.298
21
6.986
0
LINE
8
back_outsideCutPath
10
9.298
20
6.986
11
10.336
21
6.986
0
LINE
8
back_outsideCutPath
10
10.336
20
6.986
11
10.336
21
7.876
0
LINE
8
back_outsideCutPath
10
10.336
20
7.876
11
10.218
21
7.876
0
LINE
8
back_outsideCutPath
10
10.218
20
7.876
11
10.218
21
9.528
0
LINE
8
back_outsideCutPath
10
10.218
20
9.528
11
10.336
21
9.528
0
LINE
8
back_outsideCutPath
10
10.336
20
9.528
11
10.336
21
11.18
0
LINE
8
back_outsideCutPath
10
10.336
20
11.18
11
10.218
21
11.18
0
LINE
8
back_outsideCutPath
10
10.218
20
11.18
11
10.218
21
12.832
0
LINE
8
back_outsideCutPath
10
10.218
20
12.832
11
10.336
21
12.832
0
LINE
8
back_outsideCutPath
10
10.336
20
12.832
11
10.336
21
13.722
0
LINE
8
back_outsideCutPath
10
10.336
20
13.722
11
9.298
21
13.722
0
LINE
8
back_outsideCutPath
10
9.298
20
13.722
11
9.298
21
13.604
0
LINE
8
back_outsideCutPath
10
9.298
20
13.604
11
7.646
21
13.604
0
LINE
8
back_outsideCutPath
10
7.646
20
13.604
11
7.646
21
13.722
0
LINE
8
back_outsideCutPath
10
7.646
20
13.722
11
5.994
21
13.722
0
LINE
8
back_outsideCutPath
10
5.994
20
13.722
11
5.994
21
13.604
0
LINE
8
back_outsideCutPath
10
5.994
20
13.604
11
4.342
21
13.604
0
LINE
8
back_outsideCutPath
10
4.342
20
13.604
11
4.342
21
13.722
0
LINE
8
back_outsideCutPath
10
4.342
20
13.722
11
2.69
21
13.722
0
LINE
8
back_outsideCutPath
10
2.69
20
13.722
11
2.69
21
13.604
0
LINE
8
back_outsideCutPath
10
2.69
20
13.604
11
1.038
21
13.604
0
LINE
8
back_outsideCutPath
10
1.038
20
13.604
11
1.038
21
13.722
0
LINE
8
back_outsideCutPath
10
1.038
20
13.722
11
0
21
13.722
0
LINE
8
back_labelLayer
10
3.8806609
20
9.941559
11
3.8727672
21
9.941559
0
LINE
8
back_labelLayer
10
3.8727672
20
9.941559
11
3.8497438
21
9.8488074
0
LINE
8
back_labelLayer
10
3.8497438
20
9.8488074
11
3.7714641
21
9.8488074
0
LINE
8
back_labelLayer
10
3.7714641
20
9.8488074
11
3.7714641
21
10.8723637
0
LINE
8
back_labelLayer
10
3.7714641
20
10.8723637
11
3.8806609
21
10.8723637
0
LINE
8
back_labelLayer
10
3.8806609
20
10.8723637
11
3.8806609
21
10.6237106
0
LINE
8
back_labelLayer
10
3.8753984
20
10.4737293
11
3.8806609
21
10.4737293
0
ARC
8
back_labelLayer
10
4.1102242
20
10.2478849
40
0.3337417
50
74.2392499
51
90.5623843
0
ARC
8
back_labelLayer
10
4.1322931
20
10.3288423
40
0.2498348
50
38.5630668
51
74.0671214
0
ARC
8
back_labelLayer
10
4.0755012
20
10.2846831
40
0.3217706
50
16.4708794
51
38.4075082
0
ARC
8
back_labelLayer
10
3.911902
20
10.2333818
40
0.4932098
50
5.1337404
51
16.7974517
0
ARC
8
back_labelLayer
10
3.7053003
20
10.2114378
40
0.7009544
50
359.8781044
51
5.4091287
0
ARC
8
back_labelLayer
10
3.766018
20
10.2061681
40
0.6402463
50
350.6563737
51
0.3381321
0
ARC
8
back_labelLayer
10
3.9892106
20
10.1682077
40
0.4138535
50
335.8307127
51
350.8253187
0
ARC
8
back_labelLayer
10
4.0874038
20
10.1258259
40
0.3069192
50
321.3160728
51
335.5437623
0
ARC
8
back_labelLayer
10
4.1249353
20
10.0952427
40
0.258507
50
274.0640407
51
321.4081427
0
ARC
8
back_labelLayer
10
4.1074509
20
10.2059872
40
0.3703363
50
269.9222702
51
275.5481922
0
ARC
8
back_labelLayer
10
4.1051063
20
10.1668599
40
0.3312139
50
255.7754914
51
270.3186718
0
ARC
8
back_labelLayer
10
4.095655
20
10.1248686
40
0.2881899
50
245.9800819
51
255.5455232
0
ARC
8
back_labelLayer
10
4.0773468
20
10.082294
40
0.2418505
50
215.584931
51
245.8361913
0
ARC
8
back_labelLayer
10
1.6041893
20
10.6217802
40
2.2764725
50
358.1122995
51
0.0485841
0
ARC
8
back_labelLayer
10
2.2374788
20
10.6005184
40
1.6428262
50
355.7240566
51
358.125876
0
ARC
8
back_labelLayer
10
2.5403213
20
10.5794694
40
1.3392581
50
355.4715438
51
355.6560571
0
ARC
8
back_labelLayer
10
4.0843087
20
10.3317199
40
0.2482722
50
95.1835758
51
145.1108325
0
ARC
8
back_labelLayer
10
4.106129
20
10.208686
40
0.3729254
50
89.8741011
51
96.8147203
0
ARC
8
back_labelLayer
10
4.0888747
20
10.183339
40
0.3068441
50
89.5731037
51
100.7326939
0
ARC
8
back_labelLayer
10
4.0661587
20
10.2980992
40
0.1898636
50
100.4468636
51
119.6701258
0
ARC
8
back_labelLayer
10
4.0450927
20
10.3374827
40
0.1452208
50
120.1400518
51
142.4251848
0
ARC
8
back_labelLayer
10
4.0799458
20
10.3144252
40
0.186928
50
143.3382723
51
161.2558288
0
ARC
8
back_labelLayer
10
4.2256839
20
10.2626846
40
0.3415699
50
160.8927529
51
171.2333057
0
ARC
8
back_labelLayer
10
4.4689429
20
10.2234401
40
0.5879707
50
171.066615
51
177.8457103
0
ARC
8
back_labelLayer
10
4.7220948
20
10.2105665
40
0.8414341
50
177.6177137
51
180.0422199
0
ARC
8
back_labelLayer
10
4.6026173
20
10.2071253
40
0.7219619
50
179.7761084
51
185.7076868
0
ARC
8
back_labelLayer
10
4.3180156
20
10.1778003
40
0.4358555
50
185.592646
51
194.2048608
0
ARC
8
back_labelLayer
10
4.1356482
20
10.1304708
40
0.2474525
50
193.942931
51
208.0216881
0
ARC
8
back_labelLayer
10
4.0618507
20
10.0929254
40
0.1646742
50
208.5528123
51
217.5608458
0
ARC
8
back_labelLayer
10
4.0558569
20
10.0904369
40
0.1584147
50
218.1689326
51
253.8047001
0
ARC
8
back_labelLayer
10
4.0852412
20
10.1810333
40
0.2536285
50
253.1383121
51
266.8480874
0
ARC
8
back_labelLayer
10
4.0934825
20
10.2782759
40
0.351189
50
266.3778732
51
270.050525
0
ARC
8
back_labelLayer
10
4.096121
20
10.1447612
40
0.2176865
50
269.3870404
51
285.862939
0
ARC
8
back_labelLayer
10
4.1122937
20
10.0863084
40
0.1570397
50
286.0163469
51
326.8496809
0
ARC
8
back_labelLayer
10
4.0342357
20
10.1380186
40
0.2506707
50
326.7105465
51
343.6661043
0
ARC
8
back_labelLayer
10
3.8881136
20
10.1826674
40
0.4034558
50
343.4172753
51
353.6368969
0
ARC
8
back_labelLayer
10
3.6673862
20
10.2088552
40
0.6257278
50
353.4937272
51
0.2203897
0
ARC
8
back_labelLayer
10
3.6480071
20
10.2138751
40
0.6451076
50
359.7679259
51
6.309745
0
ARC
8
back_labelLayer
10
3.8909787
20
10.24176
40
0.4005445
50
6.1649042
51
16.0395771
0
ARC
8
back_labelLayer
10
4.0475342
20
10.287897
40
0.2373383
50
15.7777644
51
32.0154146
0
ARC
8
back_labelLayer
10
4.0962695
20
10.3158007
40
0.1812354
50
32.7037517
51
35.5231928
0
ARC
8
back_labelLayer
10
4.1141978
20
10.3285391
40
0.1592424
50
35.5409458
51
79.8010289
0
ARC
8
back_labelLayer
10
4.0928128
20
10.2376279
40
0.2525523
50
78.6780234
51
90.3747527
0
LINE
8
back_labelLayer
10
5.1212953
20
9.8488074
11
5.0403844
21
9.8488074
0
LINE
8
back_labelLayer
10
5.0403844
20
9.8488074
11
5.0186766
21
9.9514262
0
LINE
8
back_labelLayer
10
5.0186766
20
9.9514262
11
5.0134141
21
9.9514262
0
LINE
8
back_labelLayer
10
4.8923766
20
10.2770434
11
5.0147297
21
10.2809902
0
LINE
8
back_labelLayer
10
5.0147297
20
10.2809902
11
5.0147297
21
10.3257215
0
LINE
8
back_labelLayer
10
4.6575375
20
10.436234
11
4.6239891
21
10.5197762
0
LINE
8
back_labelLayer
10
5.1212953
20
10.3408512
11
5.1212953
21
9.8488074
0
LINE
8
back_labelLayer
10
5.0120984
20
10.1382449
11
5.0120984
21
10.2033684
0
LINE
8
back_labelLayer
10
5.0120984
20
10.2033684
11
4.9029016
21
10.1987637
0
ARC
8
back_labelLayer
10
4.6581403
20
10.2319296
40
0.4526606
50
314.7445369
51
321.7074375
0
ARC
8
back_labelLayer
10
4.7693486
20
10.118934
40
0.2941208
50
304.8483802
51
314.8530432
0
ARC
8
back_labelLayer
10
4.8227684
20
10.0428939
40
0.2011933
50
294.3936117
51
304.7372946
0
ARC
8
back_labelLayer
10
4.8045217
20
10.0901744
40
0.2518056
50
281.2976896
51
293.7316271
0
ARC
8
back_labelLayer
10
4.7803905
20
10.2071229
40
0.3712162
50
272.9334174
51
281.4138573
0
ARC
8
back_labelLayer
10
4.7723956
20
10.3269975
40
0.4913464
50
269.9535008
51
273.1491196
0
ARC
8
back_labelLayer
10
4.7696297
20
10.1707557
40
0.3351129
50
258.6720439
51
270.4047312
0
ARC
8
back_labelLayer
10
4.7463541
20
10.059408
40
0.2213645
50
238.327432
51
258.9181306
0
ARC
8
back_labelLayer
10
4.7303104
20
10.0301383
40
0.188038
50
227.7688888
51
237.8050573
0
ARC
8
back_labelLayer
10
4.7252941
20
10.0231353
40
0.1794839
50
192.0826733
51
227.4520141
0
ARC
8
back_labelLayer
10
4.8178197
20
10.0459455
40
0.2747503
50
179.5455564
51
192.6951934
0
ARC
8
back_labelLayer
10
4.7318648
20
10.0558948
40
0.1889465
50
115.490474
51
182.3568702
0
ARC
8
back_labelLayer
10
4.8264908
20
9.8823311
40
0.3864869
50
101.3567687
51
117.0798587
0
ARC
8
back_labelLayer
10
4.9024871
20
9.5271901
40
0.7496532
50
92.4697262
51
101.7064178
0
ARC
8
back_labelLayer
10
4.9243132
20
9.2111713
40
1.0663504
50
91.7162367
51
92.9096854
0
ARC
8
back_labelLayer
10
4.7011183
20
10.3274014
40
0.3136159
50
359.6930821
51
8.0039557
0
ARC
8
back_labelLayer
10
4.8197375
20
10.3446842
40
0.1937468
50
7.8271981
51
20.6040538
0
ARC
8
back_labelLayer
10
4.8868744
20
10.3703665
40
0.1218671
50
20.4096635
51
41.4477402
0
ARC
8
back_labelLayer
10
4.8967956
20
10.3758192
40
0.110849
50
42.729753
51
71.0378181
0
ARC
8
back_labelLayer
10
4.8734425
20
10.3123209
40
0.1784957
50
70.5715887
51
83.9929381
0
ARC
8
back_labelLayer
10
4.8622848
20
10.2216783
40
0.2698132
50
83.650938
51
90.1752922
0
ARC
8
back_labelLayer
10
4.864243
20
10.135978
40
0.3555232
50
90.4486138
51
103.7666263
0
ARC
8
back_labelLayer
10
4.906051
20
9.9596693
40
0.5367178
50
103.6226368
51
112.4318697
0
ARC
8
back_labelLayer
10
4.9777193
20
9.7787216
40
0.7313267
50
112.2123916
51
115.9641974
0
ARC
8
back_labelLayer
10
4.8629531
20
10.0766193
40
0.5034797
50
106.3569862
51
118.3349319
0
ARC
8
back_labelLayer
10
4.8843363
20
10.010584
40
0.5728674
50
104.5155999
51
106.5491016
0
ARC
8
back_labelLayer
10
4.8686689
20
10.0759034
40
0.5057076
50
90.0715377
51
104.652076
0
ARC
8
back_labelLayer
10
4.870654
20
10.1204513
40
0.4611667
50
81.5677527
51
90.325077
0
ARC
8
back_labelLayer
10
4.8973191
20
10.2941521
40
0.2854349
50
68.2271676
51
81.7495033
0
ARC
8
back_labelLayer
10
4.9344591
20
10.3865557
40
0.1858471
50
47.8683656
51
68.2935932
0
ARC
8
back_labelLayer
10
4.9404871
20
10.3985913
40
0.1729151
50
19.2330299
51
46.6742261
0
ARC
8
back_labelLayer
10
4.8400762
20
10.3612375
40
0.280035
50
6.3377169
51
19.6816258
0
ARC
8
back_labelLayer
10
4.6916495
20
10.3423325
40
0.4296483
50
359.8024598
51
6.6584222
0
ARC
8
back_labelLayer
10
4.7959119
20
10.2264225
40
0.3006591
50
269.5793652
51
282.0411744
0
ARC
8
back_labelLayer
10
4.8178432
20
10.1291409
40
0.200946
50
281.7120346
51
306.4592646
0
ARC
8
back_labelLayer
10
4.8275668
20
10.1131505
40
0.1823146
50
306.9878238
51
313.8555615
0
ARC
8
back_labelLayer
10
4.8264113
20
10.1128166
40
0.1828774
50
314.1890746
51
347.4270135
0
ARC
8
back_labelLayer
10
4.7347933
20
10.1357746
40
0.2773068
50
346.9179633
51
0.282236
0
ARC
8
back_labelLayer
10
4.7075769
20
10.1381891
40
0.3045216
50
359.8027169
51
0.0105052
0
ARC
8
back_labelLayer
10
4.928872
20
9.397445
40
0.8017394
50
91.8562817
51
96.4479231
0
ARC
8
back_labelLayer
10
4.8927198
20
9.7102727
40
0.4868313
50
96.3546115
51
102.9952358
0
ARC
8
back_labelLayer
10
4.8436309
20
9.9188329
40
0.2725755
50
102.7991581
51
113.2434453
0
ARC
8
back_labelLayer
10
4.8031641
20
10.0156071
40
0.167689
50
113.588016
51
121.6807981
0
ARC
8
back_labelLayer
10
4.775062
20
10.0584034
40
0.1165199
50
120.9734851
51
172.4178087
0
ARC
8
back_labelLayer
10
4.8300064
20
10.0474297
40
0.1724699
50
171.2124656
51
180.2061896
0
ARC
8
back_labelLayer
10
4.8135845
20
10.0455197
40
0.1560523
50
179.5266127
51
192.7789661
0
ARC
8
back_labelLayer
10
4.7607967
20
10.0327231
40
0.1017448
50
192.3265078
51
222.0579718
0
ARC
8
back_labelLayer
10
4.756841
20
10.0303447
40
0.0972186
50
222.578919
51
229.2559547
0
ARC
8
back_labelLayer
10
4.77014
20
10.0474606
40
0.1188712
50
229.7839922
51
254.2721697
0
ARC
8
back_labelLayer
10
4.7878115
20
10.1063525
40
0.1803514
50
253.9397896
51
266.4533383
0
ARC
8
back_labelLayer
10
4.7934546
20
10.1714263
40
0.245655
50
266.0786062
51
270.0583407
0
LINE
8
back_labelLayer
10
5.8271281
20
10.5454309
11
5.7935797
21
10.4526793
0
LINE
8
back_labelLayer
10
5.8166031
20
9.9698449
11
5.8166031
21
9.8731465
0
ARC
8
back_labelLayer
10
5.6309055
20
10.2437442
40
0.4081078
50
256.4243074
51
270.4890777
0
ARC
8
back_labelLayer
10
5.5982944
20
10.1164669
40
0.2767378
50
221.7976023
51
256.8019988
0
ARC
8
back_labelLayer
10
5.6298725
20
10.1397996
40
0.3158519
50
196.0165761
51
221.1350646
0
ARC
8
back_labelLayer
10
5.7885959
20
10.1883145
40
0.4818083
50
183.5913502
51
196.3540023
0
ARC
8
back_labelLayer
10
5.9663978
20
10.2039766
40
0.6602574
50
179.938616
51
183.981321
0
ARC
8
back_labelLayer
10
5.9086342
20
10.2085621
40
0.6025061
50
169.8977553
51
180.3687938
0
ARC
8
back_labelLayer
10
5.6988863
20
10.2473637
40
0.3892068
50
153.0875132
51
170.1052
0
ARC
8
back_labelLayer
10
5.619305
20
10.2853904
40
0.3010396
50
138.6550527
51
152.6854487
0
ARC
8
back_labelLayer
10
5.6044531
20
10.2962126
40
0.2827455
50
101.4913869
51
138.3133342
0
ARC
8
back_labelLayer
10
5.6385517
20
10.1542989
40
0.4286384
50
89.5891903
51
102.1788539
0
ARC
8
back_labelLayer
10
5.6411728
20
10.0901513
40
0.4927751
50
77.7701519
51
89.9474271
0
ARC
8
back_labelLayer
10
5.631878
20
10.0388311
40
0.5449027
50
74.6791119
51
77.9580972
0
ARC
8
back_labelLayer
10
5.6822251
20
10.2212141
40
0.3556987
50
70.0943762
51
74.7383485
0
ARC
8
back_labelLayer
10
5.7301661
20
10.3525874
40
0.2158521
50
63.5027748
51
70.18672
0
ARC
8
back_labelLayer
10
5.7507332
20
10.3958768
40
0.1679364
50
62.9412439
51
63.1932945
0
ARC
8
back_labelLayer
10
5.6141859
20
10.0012001
40
0.4858144
50
68.329764
51
74.8829424
0
ARC
8
back_labelLayer
10
5.5885364
20
9.9102367
40
0.5803202
50
74.780319
51
77.4492725
0
ARC
8
back_labelLayer
10
5.615476
20
10.0366637
40
0.4510616
50
77.2997441
51
81.7344189
0
ARC
8
back_labelLayer
10
5.6351017
20
10.1734006
40
0.3129237
50
81.6912513
51
87.508046
0
ARC
8
back_labelLayer
10
5.6388873
20
10.244106
40
0.2421217
50
87.6755598
51
89.974819
0
ARC
8
back_labelLayer
10
5.6335801
20
10.2440742
40
0.242214
50
88.7192862
51
112.5667241
0
ARC
8
back_labelLayer
10
5.6163701
20
10.3009773
40
0.1831597
50
114.4266912
51
161.6632555
0
ARC
8
back_labelLayer
10
5.7873473
20
10.2340552
40
0.3666385
50
160.1418512
51
175.1366692
0
ARC
8
back_labelLayer
10
6.0226829
20
10.2076295
40
0.6034009
50
174.5309393
51
180.1547604
0
ARC
8
back_labelLayer
10
5.9481085
20
10.2032675
40
0.5288312
50
179.7039946
51
188.0743154
0
ARC
8
back_labelLayer
10
5.7576266
20
10.175398
40
0.336324
50
187.931445
51
200.388719
0
ARC
8
back_labelLayer
10
5.6546447
20
10.1372481
40
0.226503
50
200.4184969
51
216.6389701
0
ARC
8
back_labelLayer
10
5.6114607
20
10.1063778
40
0.1734319
50
216.9694205
51
261.3104342
0
ARC
8
back_labelLayer
10
5.6305154
20
10.1952022
40
0.2641712
50
260.1356035
51
270.269458
0
ARC
8
back_labelLayer
10
5.6296376
20
10.3881358
40
0.4571067
50
270.2657532
51
286.2892142
0
ARC
8
back_labelLayer
10
5.6018439
20
10.4917903
40
0.5644012
50
286.046023
51
292.3651678
0
ARC
8
back_labelLayer
10
5.6758533
20
10.1500364
40
0.3106099
50
282.0344295
51
296.9453323
0
ARC
8
back_labelLayer
10
5.6439106
20
10.2939891
40
0.4580606
50
272.5979783
51
282.1878613
0
ARC
8
back_labelLayer
10
5.6347495
20
10.4344951
40
0.598844
50
269.9655103
51
272.8642322
0
LINE
8
back_labelLayer
10
6.0902531
20
10.2178402
11
6.0955156
21
10.2178402
0
LINE
8
back_labelLayer
10
6.1816891
20
10.3230902
11
6.4145547
21
10.5697699
0
LINE
8
back_labelLayer
10
6.4145547
20
10.5697699
11
6.5441438
21
10.5697699
0
LINE
8
back_labelLayer
10
6.5441438
20
10.5697699
11
6.252075
21
10.2625715
0
LINE
8
back_labelLayer
10
6.252075
20
10.2625715
11
6.5645359
21
9.8488074
0
LINE
8
back_labelLayer
10
6.5645359
20
9.8488074
11
6.4323156
21
9.8488074
0
LINE
8
back_labelLayer
10
6.4323156
20
9.8488074
11
6.1777422
21
10.1895543
0
LINE
8
back_labelLayer
10
6.1777422
20
10.1895543
11
6.0955156
21
10.1185106
0
LINE
8
back_labelLayer
10
6.0955156
20
10.1185106
11
6.0955156
21
9.8488074
0
LINE
8
back_labelLayer
10
6.0955156
20
9.8488074
11
5.9876344
21
9.8488074
0
LINE
8
back_labelLayer
10
5.9876344
20
9.8488074
11
5.9876344
21
10.8723637
0
LINE
8
back_labelLayer
10
5.9876344
20
10.8723637
11
6.0955156
21
10.8723637
0
LINE
8
back_labelLayer
10
6.0955156
20
10.8723637
11
6.0955156
21
10.3296684
0
ARC
8
back_labelLayer
10
6.6232626
20
9.8442767
40
0.6465807
50
142.3237856
51
144.7073876
0
ARC
8
back_labelLayer
10
6.9672354
20
9.5789609
40
1.080988
50
140.4329445
51
142.336728
0
ARC
8
back_labelLayer
10
7.4163479
20
9.2092637
40
1.66269
50
139.280197
51
140.4702998
0
ARC
8
back_labelLayer
10
7.935195
20
8.7630737
40
2.3470055
50
138.3419256
51
139.2876156
0
ARC
8
back_labelLayer
10
5.3676107
20
10.3310302
40
0.7279062
50
358.2744706
51
359.8928094
0
ARC
8
back_labelLayer
10
4.7996844
20
10.3468835
40
1.2960529
50
357.5046947
51
358.329952
0
ARC
8
back_labelLayer
10
3.9521417
20
10.3843439
40
2.1444229
50
356.633084
51
357.490669
0
ARC
8
back_labelLayer
10
2.5479657
20
10.4662575
40
3.550986
50
356.0326177
51
356.6442972
0
ARC
8
back_labelLayer
10
2.7292767
20
10.4519287
40
3.3691186
50
356.0158433
51
356.0623754
0
LINE
8
right_outsideCutPath
10
10.579
20
13.722
11
10.579
21
12.832
0
LINE
8
right_outsideCutPath
10
10.579
20
12.832
11
10.461
21
12.832
0
LINE
8
right_outsideCutPath
10
10.461
20
12.832
11
10.461
21
11.18
0
LINE
8
right_outsideCutPath
10
10.461
20
11.18
11
10.579
21
11.18
0
LINE
8
right_outsideCutPath
10
10.579
20
11.18
11
10.579
21
9.528
0
LINE
8
right_outsideCutPath
10
10.579
20
9.528
11
10.461
21
9.528
0
LINE
8
right_outsideCutPath
10
10.461
20
9.528
11
10.461
21
7.876
0
LINE
8
right_outsideCutPath
10
10.461
20
7.876
11
10.579
21
7.876
0
LINE
8
right_outsideCutPath
10
10.579
20
7.876
11
10.579
21
6.986
0
LINE
8
right_outsideCutPath
10
10.579
20
6.986
11
11.503
21
6.986
0
LINE
8
right_outsideCutPath
10
11.503
20
6.986
11
11.503
21
7.104
0
LINE
8
right_outsideCutPath
10
11.503
20
7.104
11
13.155
21
7.104
0
LINE
8
right_outsideCutPath
10
13.155
20
7.104
11
13.155
21
6.986
0
LINE
8
right_outsideCutPath
10
13.155
20
6.986
11
14.079
21
6.986
0
LINE
8
right_outsideCutPath
10
14.079
20
6.986
11
14.079
21
7.876
0
LINE
8
right_outsideCutPath
10
14.079
20
7.876
11
14.197
21
7.876
0
LINE
8
right_outsideCutPath
10
14.197
20
7.876
11
14.197
21
9.528
0
LINE
8
right_outsideCutPath
10
14.197
20
9.528
11
14.079
21
9.528
0
LINE
8
right_outsideCutPath
10
14.079
20
9.528
11
14.079
21
11.18
0
LINE
8
right_outsideCutPath
10
14.079
20
11.18
11
14.197
21
11.18
0
LINE
8
right_outsideCutPath
10
14.197
20
11.18
11
14.197
21
12.832
0
LINE
8
right_outsideCutPath
10
14.197
20
12.832
11
14.079
21
12.832
0
LINE
8
right_outsideCutPath
10
14.079
20
12.832
11
14.079
21
13.722
0
LINE
8
right_outsideCutPath
10
14.079
20
13.722
11
13.155
21
13.722
0
LINE
8
right_outsideCutPath
10
13.155
20
13.722
11
13.155
21
13.604
0
LINE
8
right_outsideCutPath
10
13.155
20
13.604
11
11.503
21
13.604
0
LINE
8
right_outsideCutPath
10
11.503
20
13.604
11
11.503
21
13.722
0
LINE
8
right_outsideCutPath
10
11.503
20
13.722
11
10.579
21
13.722
0
LINE
8
right_labelLayer
10
11.7862949
20
10.5626929
11
11.7779035
21
10.506507
0
LINE
8
right_labelLayer
10
11.6166426
20
10.3744335
11
11.6166426
21
10.1599054
0
LINE
8
right_labelLayer
10
11.6166426
20
10.1599054
11
11.5560785
21
10.1599054
0
LINE
8
right_labelLayer
10
11.5560785
20
10.1599054
11
11.5560785
21
10.5597741
0
LINE
8
right_labelLayer
10
11.5560785
20
10.5597741
11
11.6060621
21
10.5597741
0
LINE
8
right_labelLayer
10
11.6060621
20
10.5597741
11
11.6129941
21
10.4857109
0
LINE
8
right_labelLayer
10
11.6129941
20
10.4857109
11
11.6159129
21
10.4857109
0
ARC
8
right_labelLayer
10
11.7391199
20
10.2889829
40
0.2780888
50
84.9927217
51
90.1276334
0
ARC
8
right_labelLayer
10
11.7457941
20
10.3638114
40
0.2029634
50
78.4895143
51
85.0259146
0
ARC
8
right_labelLayer
10
11.7198824
20
10.2459565
40
0.2669326
50
77.4458461
51
81.6363343
0
ARC
8
right_labelLayer
10
11.7315132
20
10.3261475
40
0.1859028
50
81.5878764
51
87.1916985
0
ARC
8
right_labelLayer
10
11.7340334
20
10.3697266
40
0.142253
50
87.3456046
51
89.9642195
0
ARC
8
right_labelLayer
10
11.7334513
20
10.407042
40
0.1049398
50
89.6336394
51
137.0880681
0
ARC
8
right_labelLayer
10
11.7592804
20
10.3780121
40
0.1436698
50
135.6222628
51
138.8367963
0
ARC
8
right_labelLayer
10
11.7554316
20
10.3817643
40
0.1383029
50
138.9575408
51
174.5421305
0
ARC
8
right_labelLayer
10
11.8004736
20
10.374715
40
0.1838314
50
173.6902255
51
180.0877394
0
ARC
8
right_labelLayer
10
11.7940893
20
10.3853293
40
0.2045075
50
139.4134032
51
150.6038217
0
ARC
8
right_labelLayer
10
11.75744
20
10.4167348
40
0.1562428
50
124.2326475
51
139.4156626
0
ARC
8
right_labelLayer
10
11.7378251
20
10.4463414
40
0.1207315
50
89.6795078
51
124.4407492
0
LINE
8
right_labelLayer
10
11.921652
20
10.5597741
11
11.921652
21
10.1599054
0
LINE
8
right_labelLayer
10
11.921652
20
10.1599054
11
11.8610879
21
10.1599054
0
LINE
8
right_labelLayer
10
11.8610879
20
10.1599054
11
11.8610879
21
10.5597741
0
LINE
8
right_labelLayer
10
11.8610879
20
10.5597741
11
11.921652
21
10.5597741
0
ARC
8
right_labelLayer
10
11.9230893
20
10.668548
40
0.0671105
50
170.8450059
51
180.3545411
0
ARC
8
right_labelLayer
10
11.8979716
20
10.672747
40
0.041645
50
155.968186
51
171.0501198
0
ARC
8
right_labelLayer
10
11.8857988
20
10.6781466
40
0.0283284
50
133.7878982
51
155.9162737
0
ARC
8
right_labelLayer
10
11.8902904
20
10.6731814
40
0.0350217
50
92.6439674
51
133.4715747
0
ARC
8
right_labelLayer
10
11.8917129
20
10.6619769
40
0.0462888
50
89.9729199
51
93.763122
0
ARC
8
right_labelLayer
10
11.892288
20
10.6725862
40
0.0356836
50
46.3711255
51
90.8882721
0
ARC
8
right_labelLayer
10
11.8958392
20
10.6762523
40
0.0305796
50
17.7256713
51
46.4477376
0
ARC
8
right_labelLayer
10
11.8792789
20
10.6705502
40
0.0480912
50
4.9422288
51
18.1897303
0
ARC
8
right_labelLayer
10
11.858192
20
10.66827
40
0.0692977
50
359.8864997
51
5.3184468
0
ARC
8
right_labelLayer
10
11.864814
20
10.6677082
40
0.0626769
50
349.835855
51
0.3880494
0
ARC
8
right_labelLayer
10
11.8876408
20
10.6634522
40
0.0394576
50
332.6315135
51
350.0696667
0
ARC
8
right_labelLayer
10
11.8965181
20
10.6590687
40
0.0295595
50
313.61616
51
332.2668153
0
ARC
8
right_labelLayer
10
11.8922409
20
10.6629635
40
0.0353322
50
269.1792814
51
314.2809833
0
ARC
8
right_labelLayer
10
11.891334
20
10.6661077
40
0.0384747
50
250.5007988
51
270.5968416
0
ARC
8
right_labelLayer
10
11.8901691
20
10.6617507
40
0.0339807
50
225.1300559
51
249.9001639
0
ARC
8
right_labelLayer
10
11.8883456
20
10.6597367
40
0.0312671
50
197.792902
51
224.8944292
0
ARC
8
right_labelLayer
10
11.9054016
20
10.6655825
40
0.0492949
50
184.9917115
51
198.2047213
0
ARC
8
right_labelLayer
10
11.9274705
20
10.6679838
40
0.0714906
50
179.8806124
51
185.3698929
0
LINE
8
right_labelLayer
10
12.239066
20
10.5597741
11
12.3773418
21
10.5597741
0
LINE
8
right_labelLayer
10
12.3773418
20
10.5597741
11
12.3773418
21
10.5214656
0
LINE
8
right_labelLayer
10
12.3773418
20
10.5214656
11
12.3032785
21
10.5127093
0
LINE
8
right_labelLayer
10
12.166827
20
10.2233882
11
12.2376066
21
10.2233882
0
LINE
8
right_labelLayer
10
12.2182699
20
10.1690265
11
12.145666
21
10.1690265
0
ARC
8
right_labelLayer
10
12.2261166
20
10.4516428
40
0.0984027
50
29.4571525
51
38.3583503
0
ARC
8
right_labelLayer
10
12.185867
20
10.4286647
40
0.1447492
50
23.1847601
51
29.5418294
0
ARC
8
right_labelLayer
10
12.1473572
20
10.4115883
40
0.1868726
50
21.2526727
51
23.3491378
0
ARC
8
right_labelLayer
10
12.2127395
20
10.4375962
40
0.1165106
50
6.8500368
51
20.9874976
0
ARC
8
right_labelLayer
10
12.1799268
20
10.4331452
40
0.1496209
50
359.8710584
51
7.0436278
0
ARC
8
right_labelLayer
10
12.1907146
20
10.4313649
40
0.1388401
50
342.5649608
51
0.5957669
0
ARC
8
right_labelLayer
10
12.2163213
20
10.4242936
40
0.112295
50
310.609752
51
342.0925094
0
ARC
8
right_labelLayer
10
12.2019629
20
10.4409938
40
0.134319
50
284.9313666
51
310.6225733
0
ARC
8
right_labelLayer
10
12.183992
20
10.5039652
40
0.1997978
50
272.5337263
51
285.2579379
0
ARC
8
right_labelLayer
10
12.1793731
20
10.5671598
40
0.263141
50
269.9691986
51
272.9301716
0
ARC
8
right_labelLayer
10
12.1787981
20
10.4986329
40
0.1946147
50
263.4832093
51
270.1276517
0
ARC
8
right_labelLayer
10
12.1756356
20
10.4686046
40
0.1644217
50
259.4978421
51
263.3905233
0
ARC
8
right_labelLayer
10
12.1952543
20
10.2112459
40
0.107777
50
117.3936309
51
128.4090809
0
ARC
8
right_labelLayer
10
12.1675062
20
10.2456699
40
0.0635642
50
128.0876725
51
147.1396809
0
ARC
8
right_labelLayer
10
12.1525599
20
10.2557006
40
0.0455677
50
147.5369803
51
180.2592534
0
ARC
8
right_labelLayer
10
12.138378
20
10.2551065
40
0.0313879
50
179.2918163
51
198.3590582
0
ARC
8
right_labelLayer
10
12.1325022
20
10.2535616
40
0.0253275
50
199.2286699
51
239.5696052
0
ARC
8
right_labelLayer
10
12.137486
20
10.2604686
40
0.0338167
50
238.2159227
51
239.8318023
0
ARC
8
right_labelLayer
10
12.1412597
20
10.2682847
40
0.0424757
50
240.7292411
51
254.5044196
0
ARC
8
right_labelLayer
10
12.152857
20
10.3082403
40
0.0840789
50
254.1630232
51
262.2124753
0
ARC
8
right_labelLayer
10
12.1620427
20
10.3724032
40
0.1488952
50
262.0558742
51
267.2084967
0
ARC
8
right_labelLayer
10
12.1664834
20
10.4537959
40
0.2304081
50
267.0912508
51
270.0854213
0
ARC
8
right_labelLayer
10
12.2389318
20
9.9754964
40
0.2478954
50
81.5740766
51
90.3062907
0
ARC
8
right_labelLayer
10
12.2525271
20
10.0641588
40
0.1581985
50
68.367292
51
81.739499
0
ARC
8
right_labelLayer
10
12.2702882
20
10.1095527
40
0.1094544
50
52.1882167
51
68.2497364
0
ARC
8
right_labelLayer
10
12.2827188
20
10.1263026
40
0.0886019
50
8.6198643
51
51.8983306
0
ARC
8
right_labelLayer
10
12.2391636
20
10.1170868
40
0.1330716
50
359.7425895
51
9.7323759
0
ARC
8
right_labelLayer
10
12.2411137
20
10.1148403
40
0.1311307
50
340.5267951
51
0.7204001
0
ARC
8
right_labelLayer
10
12.2603776
20
10.1100441
40
0.1113859
50
302.9904738
51
339.5493451
0
ARC
8
right_labelLayer
10
12.2393413
20
10.1369502
40
0.1454388
50
303.1946311
51
304.1700767
0
ARC
8
right_labelLayer
10
12.221302
20
10.168384
40
0.1816316
50
286.2544707
51
302.5277707
0
ARC
8
right_labelLayer
10
12.1869993
20
10.2815359
40
0.2998646
50
276.4942838
51
286.4952083
0
ARC
8
right_labelLayer
10
12.1655985
20
10.4604408
40
0.4800431
50
269.7547064
51
276.6170496
0
ARC
8
right_labelLayer
10
12.1619449
20
10.3197155
40
0.339317
50
262.5633158
51
270.269905
0
ARC
8
right_labelLayer
10
12.1453266
20
10.1965465
40
0.2150338
50
251.2104802
51
262.7063263
0
ARC
8
right_labelLayer
10
12.121371
20
10.1262294
40
0.140748
50
235.9665971
51
251.222821
0
ARC
8
right_labelLayer
10
12.0959828
20
10.0900106
40
0.0965271
50
208.9037266
51
236.4229173
0
ARC
8
right_labelLayer
10
12.098313
20
10.0890329
40
0.0981146
50
182.2080307
51
207.7461051
0
ARC
8
right_labelLayer
10
12.1279168
20
10.0919926
40
0.1278233
50
179.9767661
51
183.0224887
0
ARC
8
right_labelLayer
10
12.0926842
20
10.0936689
40
0.0926051
50
138.391389
51
181.00511
0
ARC
8
right_labelLayer
10
12.1024643
20
10.0848795
40
0.1057544
50
113.812202
51
138.3494225
0
ARC
8
right_labelLayer
10
12.1210185
20
10.0448084
40
0.1499077
50
102.2876274
51
114.1166033
0
ARC
8
right_labelLayer
10
12.115185
20
10.2484786
40
0.0628577
50
216.5862158
51
245.4968917
0
ARC
8
right_labelLayer
10
12.1235758
20
10.2556684
40
0.0738845
50
215.4578229
51
217.1848243
0
ARC
8
right_labelLayer
10
12.1091964
20
10.2452872
40
0.0561498
50
182.1770412
51
215.3411782
0
ARC
8
right_labelLayer
10
12.122384
20
10.2467146
40
0.0693883
50
179.9805178
51
182.9411703
0
ARC
8
right_labelLayer
10
12.1222521
20
10.2473231
40
0.0692588
50
161.7222668
51
180.4838786
0
ARC
8
right_labelLayer
10
12.1146368
20
10.2494016
40
0.0613774
50
144.4963719
51
161.3351116
0
ARC
8
right_labelLayer
10
12.134946
20
10.2342631
40
0.0867041
50
132.7264869
51
144.1466434
0
ARC
8
right_labelLayer
10
12.1674783
20
10.1995181
40
0.1343015
50
125.2212949
51
132.8646371
0
ARC
8
right_labelLayer
10
12.200232
20
10.1540279
40
0.1903549
50
121.2362761
51
125.3782962
0
ARC
8
right_labelLayer
10
12.1421945
20
10.4148628
40
0.1061746
50
215.1642769
51
247.4747177
0
ARC
8
right_labelLayer
10
12.1619345
20
10.4308012
40
0.1315019
50
212.4693196
51
215.8879761
0
ARC
8
right_labelLayer
10
12.1568009
20
10.4271282
40
0.1251994
50
183.0160763
51
212.3124154
0
ARC
8
right_labelLayer
10
12.1841717
20
10.4301874
40
0.1527018
50
179.974768
51
183.6219918
0
ARC
8
right_labelLayer
10
12.2064468
20
10.4317325
40
0.1749831
50
166.819821
51
180.4839253
0
ARC
8
right_labelLayer
10
12.1483954
20
10.4463886
40
0.1151237
50
132.3287344
51
167.3341748
0
ARC
8
right_labelLayer
10
12.1561619
20
10.4352252
40
0.1286188
50
106.2189417
51
131.5377641
0
ARC
8
right_labelLayer
10
12.1758107
20
10.3716055
40
0.1951977
50
93.6328956
51
106.5410256
0
ARC
8
right_labelLayer
10
12.1822233
20
10.2996691
40
0.2674021
50
89.9374414
51
94.0274799
0
ARC
8
right_labelLayer
10
12.1832645
20
10.3349243
40
0.232148
50
82.5852831
51
90.1849335
0
ARC
8
right_labelLayer
10
12.1903585
20
10.3898096
40
0.1768061
50
74.0090524
51
82.5696304
0
ARC
8
right_labelLayer
10
12.1192884
20
10.0919464
40
0.0608257
50
179.2202286
51
200.9353552
0
ARC
8
right_labelLayer
10
12.1120549
20
10.090271
40
0.0534807
50
202.0280753
51
236.1459672
0
ARC
8
right_labelLayer
10
12.1229121
20
10.1040426
40
0.0709784
50
235.0605386
51
238.5053158
0
ARC
8
right_labelLayer
10
12.1356285
20
10.1267451
40
0.0969851
50
239.106192
51
254.4869181
0
ARC
8
right_labelLayer
10
12.152525
20
10.1849937
40
0.1576324
50
254.2318174
51
263.4943897
0
ARC
8
right_labelLayer
10
12.1631418
20
10.2748769
40
0.2481399
50
263.4101953
51
270.1461715
0
LINE
8
right_labelLayer
10
12.1637748
20
10.0267378
11
12.164273
21
10.0267374
0
ARC
8
right_labelLayer
10
12.1657226
20
10.4339056
40
0.4071708
50
269.7960242
51
275.3990045
0
ARC
8
right_labelLayer
10
12.1809661
20
10.2774228
40
0.2499484
50
275.2953441
51
283.3519387
0
ARC
8
right_labelLayer
10
12.2057899
20
10.1751859
40
0.1447434
50
283.1369747
51
295.8576054
0
ARC
8
right_labelLayer
10
12.2241985
20
10.1350031
40
0.1005596
50
296.4043792
51
301.8021625
0
ARC
8
right_labelLayer
10
12.2313938
20
10.1250922
40
0.0883493
50
301.2235315
51
318.6235713
0
ARC
8
right_labelLayer
10
12.247663
20
10.1100633
40
0.0662092
50
319.0765224
51
1.1404935
0
ARC
8
right_labelLayer
10
12.2319233
20
10.1120313
40
0.0819382
50
359.5454161
51
10.9902603
0
ARC
8
right_labelLayer
10
12.2635751
20
10.1184697
40
0.0496402
50
10.6599027
51
30.9369209
0
ARC
8
right_labelLayer
10
12.2736055
20
10.1240363
40
0.0381769
50
31.5100812
51
58.0771211
0
ARC
8
right_labelLayer
10
12.2642015
20
10.1071987
40
0.057448
50
58.9963536
51
73.8584019
0
ARC
8
right_labelLayer
10
12.2451912
20
10.0449647
40
0.1225173
50
73.4098787
51
81.5909516
0
ARC
8
right_labelLayer
10
12.2290865
20
9.9407614
40
0.2279566
50
81.4167712
51
86.5761637
0
ARC
8
right_labelLayer
10
12.2192138
20
9.7837602
40
0.3852675
50
86.5049839
51
90.1403768
0
ARC
8
right_labelLayer
10
12.1447987
20
10.0298116
40
0.1392175
50
89.643039
51
100.0205612
0
ARC
8
right_labelLayer
10
12.1360495
20
10.0774102
40
0.0908231
50
99.8101996
51
116.8228764
0
ARC
8
right_labelLayer
10
12.1275254
20
10.0953865
40
0.0709363
50
117.2303807
51
130.5025284
0
ARC
8
right_labelLayer
10
12.1231492
20
10.1010102
40
0.0638189
50
130.7942327
51
169.0414269
0
ARC
8
right_labelLayer
10
12.1553687
20
10.0934212
40
0.0969025
50
168.2575471
51
180.382563
0
ARC
8
right_labelLayer
10
12.2095191
20
10.430809
40
0.1182183
50
179.5613663
51
191.6526439
0
ARC
8
right_labelLayer
10
12.1684177
20
10.4219291
40
0.0761713
50
191.3553006
51
213.3655854
0
ARC
8
right_labelLayer
10
12.1585433
20
10.4162276
40
0.064792
50
213.9571636
51
227.7975856
0
ARC
8
right_labelLayer
10
12.1671344
20
10.4266465
40
0.0782838
50
228.2622334
51
254.7338981
0
ARC
8
right_labelLayer
10
12.1781062
20
10.464257
40
0.117458
50
254.40133
51
267.4345142
0
ARC
8
right_labelLayer
10
12.1809642
20
10.502564
40
0.1558586
50
267.0152639
51
270.0336827
0
ARC
8
right_labelLayer
10
12.1828396
20
10.478629
40
0.1319357
50
269.2253514
51
284.3777016
0
ARC
8
right_labelLayer
10
12.2008223
20
10.4159808
40
0.0668103
50
282.7797456
51
346.482738
0
ARC
8
right_labelLayer
10
12.1470612
20
10.4312101
40
0.1226623
50
345.4356983
51
0.7466458
0
ARC
8
right_labelLayer
10
12.1395022
20
10.4346708
40
0.130224
50
359.1806081
51
15.0435557
0
ARC
8
right_labelLayer
10
12.1985071
20
10.4518843
40
0.068786
50
13.9534714
51
77.6673271
0
ARC
8
right_labelLayer
10
12.1815763
20
10.391211
40
0.131724
50
76.1094983
51
90.7025006
0
ARC
8
right_labelLayer
10
12.179042
20
10.395852
40
0.1270762
50
89.5855076
51
101.3333816
0
ARC
8
right_labelLayer
10
12.1699603
20
10.439165
40
0.082824
50
101.0615793
51
121.9740008
0
ARC
8
right_labelLayer
10
12.1635762
20
10.4506481
40
0.0697055
50
122.5207617
51
134.997141
0
ARC
8
right_labelLayer
10
12.1662055
20
10.449071
40
0.0726836
50
135.5837801
51
163.0019741
0
ARC
8
right_labelLayer
10
12.2045942
20
10.4364891
40
0.1130765
50
162.5916524
51
175.7342794
0
ARC
8
right_labelLayer
10
12.2505851
20
10.4319564
40
0.1592809
50
175.3388807
51
180.0872163
0
LINE
8
right_labelLayer
10
12.7936285
20
10.1599054
11
12.7330645
21
10.1599054
0
LINE
8
right_labelLayer
10
12.7330645
20
10.1599054
11
12.7330645
21
10.4185796
0
LINE
8
right_labelLayer
10
12.5199957
20
10.3689609
11
12.5199957
21
10.1599054
0
LINE
8
right_labelLayer
10
12.5199957
20
10.1599054
11
12.4594316
21
10.1599054
0
LINE
8
right_labelLayer
10
12.4594316
20
10.1599054
11
12.4594316
21
10.7276023
0
LINE
8
right_labelLayer
10
12.4594316
20
10.7276023
11
12.5199957
21
10.7276023
0
LINE
8
right_labelLayer
10
12.5199957
20
10.7276023
11
12.5199957
21
10.5557609
0
LINE
8
right_labelLayer
10
12.517077
20
10.5043179
11
12.5207254
21
10.5043179
0
LINE
8
right_labelLayer
10
12.7936285
20
10.4207687
11
12.7936285
21
10.1599054
0
ARC
8
right_labelLayer
10
12.5618781
20
10.4195614
40
0.1711892
50
359.6714098
51
8.6882556
0
ARC
8
right_labelLayer
10
12.6253225
20
10.429625
40
0.1069533
50
8.4930855
51
22.6583743
0
ARC
8
right_labelLayer
10
12.6575541
20
10.4430194
40
0.0720496
50
22.7029891
51
42.3415802
0
ARC
8
right_labelLayer
10
12.6611803
20
10.4446513
40
0.0682814
50
43.3789785
51
71.5383825
0
ARC
8
right_labelLayer
10
12.6476292
20
10.4067863
40
0.1084923
50
71.082636
51
84.3688067
0
ARC
8
right_labelLayer
10
12.6415453
20
10.3550676
40
0.1605612
50
84.0192255
51
90.1504139
0
ARC
8
right_labelLayer
10
12.6398197
20
10.3323463
40
0.1832864
50
89.5923096
51
100.3592431
0
ARC
8
right_labelLayer
10
12.626842
20
10.400552
40
0.1138599
50
100.1069207
51
118.084221
0
ARC
8
right_labelLayer
10
12.6136414
20
10.4264562
40
0.0847931
50
118.4549056
51
139.6704512
0
ARC
8
right_labelLayer
10
12.6268926
20
10.4173987
40
0.1007705
50
140.6206716
51
160.5048071
0
ARC
8
right_labelLayer
10
12.6967294
20
10.3915438
40
0.1752352
50
160.1562129
51
171.5315834
0
ARC
8
right_labelLayer
10
12.8097647
20
10.3736349
40
0.2896773
50
171.3204171
51
178.3406872
0
ARC
8
right_labelLayer
10
12.9106474
20
10.3691233
40
0.3906516
50
178.1077104
51
180.023829
0
ARC
8
right_labelLayer
10
11.9755089
20
10.5551066
40
0.5444872
50
357.8666327
51
0.0688504
0
ARC
8
right_labelLayer
10
12.1600837
20
10.5480616
40
0.3597781
50
354.9835049
51
357.8935707
0
ARC
8
right_labelLayer
10
12.2826972
20
10.5373826
40
0.2367005
50
351.9700878
51
354.963285
0
ARC
8
right_labelLayer
10
12.6233107
20
10.4401471
40
0.1210026
50
119.8315517
51
147.9725195
0
ARC
8
right_labelLayer
10
12.6379891
20
10.4175888
40
0.1478814
50
116.6662256
51
120.4172975
0
ARC
8
right_labelLayer
10
12.6407001
20
10.4104482
40
0.1554811
50
96.6656036
51
116.3780293
0
ARC
8
right_labelLayer
10
12.6465933
20
10.3697985
40
0.1965433
50
89.8927179
51
96.9964875
0
ARC
8
right_labelLayer
10
12.6484794
20
10.3206447
40
0.2457013
50
80.6859677
51
90.3540027
0
ARC
8
right_labelLayer
10
12.6637797
20
10.4106271
40
0.1544299
50
65.6018385
51
80.8845756
0
ARC
8
right_labelLayer
10
12.6821524
20
10.4520023
40
0.109161
50
46.7398806
51
65.4133879
0
ARC
8
right_labelLayer
10
12.6833992
20
10.455942
40
0.1054527
50
19.2206363
51
45.7661837
0
ARC
8
right_labelLayer
10
12.6225906
20
10.4334008
40
0.1702969
50
6.4735414
51
19.6466301
0
ARC
8
right_labelLayer
10
12.5317411
20
10.4217094
40
0.2618889
50
359.7941862
51
6.774159
0
LINE
8
right_labelLayer
10
13.1019215
20
10.209889
11
13.1019215
21
10.1635538
0
LINE
8
right_labelLayer
10
12.9224184
20
10.2748312
11
12.9224184
21
10.5127093
0
LINE
8
right_labelLayer
10
12.9224184
20
10.5127093
11
12.8651379
21
10.5127093
0
LINE
8
right_labelLayer
10
12.8651379
20
10.5127093
11
12.8651379
21
10.5418968
0
LINE
8
right_labelLayer
10
12.8651379
20
10.5418968
11
12.9224184
21
10.567071
0
LINE
8
right_labelLayer
10
12.9224184
20
10.567071
11
12.9479574
21
10.6524445
0
LINE
8
right_labelLayer
10
12.9479574
20
10.6524445
11
12.9829824
21
10.6524445
0
LINE
8
right_labelLayer
10
12.9829824
20
10.6524445
11
12.9829824
21
10.5597741
0
LINE
8
right_labelLayer
10
12.9829824
20
10.5597741
11
13.0990027
21
10.5597741
0
LINE
8
right_labelLayer
10
13.0990027
20
10.5597741
11
13.0990027
21
10.5127093
0
LINE
8
right_labelLayer
10
13.0990027
20
10.5127093
11
12.9829824
21
10.5127093
0
LINE
8
right_labelLayer
10
12.9829824
20
10.5127093
11
12.9829824
21
10.2773851
0
ARC
8
right_labelLayer
10
13.0476116
20
10.4014859
40
0.1988943
50
269.879971
51
278.3027232
0
ARC
8
right_labelLayer
10
13.050461
20
10.3797664
40
0.1769911
50
278.4052781
51
279.0190481
0
ARC
8
right_labelLayer
10
13.0271122
20
10.5290217
40
0.3280614
50
278.960093
51
280.5094837
0
ARC
8
right_labelLayer
10
13.0484049
20
10.4147191
40
0.2117926
50
280.4859851
51
282.6254925
0
ARC
8
right_labelLayer
10
13.0670741
20
10.3317401
40
0.1267394
50
282.5891204
51
285.5775732
0
ARC
8
right_labelLayer
10
13.0763566
20
10.2974931
40
0.0912579
50
285.7378096
51
286.2684322
0
ARC
8
right_labelLayer
10
13.0764422
20
10.2174521
40
0.0596173
50
287.9911622
51
295.3014863
0
ARC
8
right_labelLayer
10
13.062109
20
10.2608137
40
0.1052861
50
283.305408
51
288.1213555
0
ARC
8
right_labelLayer
10
13.0469042
20
10.3242409
40
0.1705101
50
280.0068716
51
283.3724239
0
ARC
8
right_labelLayer
10
13.0370397
20
10.3776299
40
0.2248015
50
279.1832592
51
280.1183002
0
ARC
8
right_labelLayer
10
13.0305309
20
10.4146941
40
0.2624299
50
275.5257286
51
279.2946507
0
ARC
8
right_labelLayer
10
13.0375522
20
10.3412965
40
0.1886972
50
270.8922807
51
275.5497137
0
ARC
8
right_labelLayer
10
13.0384302
20
10.3087039
40
0.1560953
50
270.0031193
51
270.7563546
0
ARC
8
right_labelLayer
10
13.0359942
20
10.3107696
40
0.15818
50
253.784525
51
270.8854727
0
ARC
8
right_labelLayer
10
13.0172543
20
10.2468616
40
0.0915813
50
190.3818657
51
253.8771281
0
ARC
8
right_labelLayer
10
13.1127734
20
10.2726877
40
0.1903669
50
179.3548656
51
192.8476437
0
ARC
8
right_labelLayer
10
13.1049185
20
10.2766213
40
0.1219385
50
179.641097
51
189.7514802
0
ARC
8
right_labelLayer
10
13.0618853
20
10.268944
40
0.0782273
50
189.548155
51
205.7871009
0
ARC
8
right_labelLayer
10
13.0441879
20
10.2607829
40
0.058743
50
206.1289482
51
221.4086646
0
ARC
8
right_labelLayer
10
13.0422067
20
10.2592796
40
0.0562629
50
221.5949715
51
262.3503378
0
ARC
8
right_labelLayer
10
13.0469259
20
10.2835513
40
0.0809597
50
261.3266853
51
270.1903553
0
LINE
8
bottom_outsideCutPath
10
14.44
20
7.604
11
14.44
21
6.68
0
LINE
8
bottom_outsideCutPath
10
14.44
20
6.68
11
14.322
21
6.68
0
LINE
8
bottom_outsideCutPath
10
14.322
20
6.68
11
14.322
21
5.028
0
LINE
8
bottom_outsideCutPath
10
14.322
20
5.028
11
14.44
21
5.028
0
LINE
8
bottom_outsideCutPath
10
14.44
20
5.028
11
14.44
21
4.104
0
LINE
8
bottom_outsideCutPath
10
14.44
20
4.104
11
15.36
21
4.104
0
LINE
8
bottom_outsideCutPath
10
15.36
20
4.104
11
15.36
21
3.986
0
LINE
8
bottom_outsideCutPath
10
15.36
20
3.986
11
17.012
21
3.986
0
LINE
8
bottom_outsideCutPath
10
17.012
20
3.986
11
17.012
21
4.104
0
LINE
8
bottom_outsideCutPath
10
17.012
20
4.104
11
18.664
21
4.104
0
LINE
8
bottom_outsideCutPath
10
18.664
20
4.104
11
18.664
21
3.986
0
LINE
8
bottom_outsideCutPath
10
18.664
20
3.986
11
20.316
21
3.986
0
LINE
8
bottom_outsideCutPath
10
20.316
20
3.986
11
20.316
21
4.104
0
LINE
8
bottom_outsideCutPath
10
20.316
20
4.104
11
21.968
21
4.104
0
LINE
8
bottom_outsideCutPath
10
21.968
20
4.104
11
21.968
21
3.986
0
LINE
8
bottom_outsideCutPath
10
21.968
20
3.986
11
23.62
21
3.986
0
LINE
8
bottom_outsideCutPath
10
23.62
20
3.986
11
23.62
21
4.104
0
LINE
8
bottom_outsideCutPath
10
23.62
20
4.104
11
24.54
21
4.104
0
LINE
8
bottom_outsideCutPath
10
24.54
20
4.104
11
24.54
21
5.028
0
LINE
8
bottom_outsideCutPath
10
24.54
20
5.028
11
24.658
21
5.028
0
LINE
8
bottom_outsideCutPath
10
24.658
20
5.028
11
24.658
21
6.68
0
LINE
8
bottom_outsideCutPath
10
24.658
20
6.68
11
24.54
21
6.68
0
LINE
8
bottom_outsideCutPath
10
24.54
20
6.68
11
24.54
21
7.604
0
LINE
8
bottom_outsideCutPath
10
24.54
20
7.604
11
23.62
21
7.604
0
LINE
8
bottom_outsideCutPath
10
23.62
20
7.604
11
23.62
21
7.722
0
LINE
8
bottom_outsideCutPath
10
23.62
20
7.722
11
21.968
21
7.722
0
LINE
8
bottom_outsideCutPath
10
21.968
20
7.722
11
21.968
21
7.604
0
LINE
8
bottom_outsideCutPath
10
21.968
20
7.604
11
20.316
21
7.604
0
LINE
8
bottom_outsideCutPath
10
20.316
20
7.604
11
20.316
21
7.722
0
LINE
8
bottom_outsideCutPath
10
20.316
20
7.722
11
18.664
21
7.722
0
LINE
8
bottom_outsideCutPath
10
18.664
20
7.722
11
18.664
21
7.604
0
LINE
8
bottom_outsideCutPath
10
18.664
20
7.604
11
17.012
21
7.604
0
LINE
8
bottom_outsideCutPath
10
17.012
20
7.604
11
17.012
21
7.722
0
LINE
8
bottom_outsideCutPath
10
17.012
20
7.722
11
15.36
21
7.722
0
LINE
8
bottom_outsideCutPath
10
15.36
20
7.722
11
15.36
21
7.604
0
LINE
8
bottom_outsideCutPath
10
15.36
20
7.604
11
14.44
21
7.604
0
LINE
8
bottom_labelLayer
10
18.3214037
20
5.6252524
11
18.3170256
21
5.6252524
0
LINE
8
bottom_labelLayer
10
18.3170256
20
5.6252524
11
18.304256
21
5.5738094
0
LINE
8
bottom_labelLayer
10
18.304256
20
5.5738094
11
18.2608396
21
5.5738094
0
LINE
8
bottom_labelLayer
10
18.2608396
20
5.5738094
11
18.2608396
21
6.1415063
0
LINE
8
bottom_labelLayer
10
18.2608396
20
6.1415063
11
18.3214037
21
6.1415063
0
LINE
8
bottom_labelLayer
10
18.3214037
20
6.1415063
11
18.3214037
21
6.0035954
0
LINE
8
bottom_labelLayer
10
18.3184849
20
5.920411
11
18.3214037
21
5.920411
0
ARC
8
bottom_labelLayer
10
18.4487261
20
5.7951447
40
0.1851096
50
74.2395182
51
90.562137
0
ARC
8
bottom_labelLayer
10
18.4609668
20
5.8400521
40
0.1385664
50
38.5630284
51
74.0670743
0
ARC
8
bottom_labelLayer
10
18.4294704
20
5.8155611
40
0.1784619
50
16.4706968
51
38.4076161
0
ARC
8
bottom_labelLayer
10
18.3387187
20
5.7871043
40
0.2735623
50
5.1339903
51
16.7971678
0
ARC
8
bottom_labelLayer
10
18.2241839
20
5.774937
40
0.3887309
50
359.8779153
51
5.4095202
0
ARC
8
bottom_labelLayer
10
18.2578144
20
5.7720148
40
0.3551057
50
350.65622
51
0.3378471
0
ARC
8
bottom_labelLayer
10
18.3816118
20
5.7509584
40
0.2295333
50
335.8305479
51
350.8253526
0
ARC
8
bottom_labelLayer
10
18.436064
20
5.7274557
40
0.1702338
50
321.3165306
51
335.5436718
0
ARC
8
bottom_labelLayer
10
18.4568861
20
5.7104899
40
0.1433759
50
274.0640339
51
321.4082519
0
ARC
8
bottom_labelLayer
10
18.4471856
20
5.7719454
40
0.2054331
50
269.9231081
51
275.5481334
0
ARC
8
bottom_labelLayer
10
18.4458894
20
5.7502217
40
0.1837119
50
255.7759091
51
270.3182813
0
ARC
8
bottom_labelLayer
10
18.4406508
20
5.7269345
40
0.1598528
50
245.9804465
51
255.5450792
0
ARC
8
bottom_labelLayer
10
18.430492
20
5.7033087
40
0.1341382
50
215.5849908
51
245.8362081
0
ARC
8
bottom_labelLayer
10
17.0587004
20
6.0025279
40
1.2627038
50
358.1123065
51
0.0484383
0
ARC
8
bottom_labelLayer
10
17.4100783
20
5.9907351
40
0.9111281
50
355.723716
51
358.1256291
0
ARC
8
bottom_labelLayer
10
17.5990746
20
5.9774743
40
0.7216699
50
355.4648203
51
355.6547348
0
ARC
8
bottom_labelLayer
10
18.4343533
20
5.8416479
40
0.1376999
50
95.183613
51
145.1107884
0
ARC
8
bottom_labelLayer
10
18.4464563
20
5.7733962
40
0.2068497
50
89.8743394
51
96.8145088
0
ARC
8
bottom_labelLayer
10
18.4368848
20
5.7593501
40
0.1701867
50
89.5728174
51
100.7323346
0
ARC
8
bottom_labelLayer
10
18.424287
20
5.8230012
40
0.1053042
50
100.4470535
51
119.670338
0
ARC
8
bottom_labelLayer
10
18.4126042
20
5.8448425
40
0.0805463
50
120.1403013
51
142.4248044
0
ARC
8
bottom_labelLayer
10
18.4319347
20
5.8320556
40
0.1036774
50
143.3385719
51
161.2559108
0
ARC
8
bottom_labelLayer
10
18.5127632
20
5.8033601
40
0.1894439
50
160.8929858
51
171.2336227
0
ARC
8
bottom_labelLayer
10
18.6477178
20
5.7815906
40
0.3261414
50
171.0671943
51
177.8455783
0
ARC
8
bottom_labelLayer
10
18.7879841
20
5.7744551
40
0.4665805
50
177.6174812
51
180.0425364
0
ARC
8
bottom_labelLayer
10
18.721872
20
5.7725468
40
0.4004714
50
179.7765358
51
185.7073969
0
ARC
8
bottom_labelLayer
10
18.5639473
20
5.7562746
40
0.2417118
50
185.5921537
51
194.2053515
0
ARC
8
bottom_labelLayer
10
18.4628247
20
5.7300274
40
0.1372417
50
193.942604
51
208.0217089
0
ARC
8
bottom_labelLayer
10
18.4218987
20
5.7092064
40
0.0913354
50
208.5531449
51
217.5609935
0
ARC
8
bottom_labelLayer
10
18.418573
20
5.7078253
40
0.0878621
50
218.1691408
51
253.8047653
0
ARC
8
bottom_labelLayer
10
18.43487
20
5.7580731
40
0.140671
50
253.1385543
51
266.8482705
0
ARC
8
bottom_labelLayer
10
18.4394367
20
5.8118673
40
0.1946415
50
266.3766517
51
270.0519279
0
ARC
8
bottom_labelLayer
10
18.4409044
20
5.7379558
40
0.1207369
50
269.3872089
51
285.862964
0
ARC
8
bottom_labelLayer
10
18.4498754
20
5.705534
40
0.087098
50
286.0160613
51
326.8499858
0
ARC
8
bottom_labelLayer
10
18.4065812
20
5.7342156
40
0.1390301
50
326.7103811
51
343.6659209
0
ARC
8
bottom_labelLayer
10
18.3255573
20
5.758975
40
0.223749
50
343.4167404
51
353.6372957
0
ARC
8
bottom_labelLayer
10
18.2030998
20
5.7735042
40
0.3470634
50
353.4938845
51
0.2202584
0
ARC
8
bottom_labelLayer
10
18.1923341
20
5.776285
40
0.3578295
50
359.7683546
51
6.3095812
0
ARC
8
bottom_labelLayer
10
18.3271279
20
5.7917545
40
0.2221529
50
6.1646792
51
16.0394356
0
ARC
8
bottom_labelLayer
10
18.4139507
20
5.8173403
40
0.1316419
50
15.7779463
51
32.0147961
0
ARC
8
bottom_labelLayer
10
18.441086
20
5.8328856
40
0.1003996
50
32.7021703
51
35.5249636
0
ARC
8
bottom_labelLayer
10
18.4509308
20
5.839884
40
0.0883207
50
35.5409423
51
79.8011144
0
ARC
8
bottom_labelLayer
10
18.4390694
20
5.7894621
40
0.1400732
50
78.6778153
51
90.3745793
0
ARC
8
bottom_labelLayer
10
18.751025
20
5.7719996
40
0.3128429
50
349.1763562
51
0.3862616
0
ARC
8
bottom_labelLayer
10
18.856352
20
5.7510041
40
0.2054486
50
330.2508152
51
349.4114651
0
ARC
8
bottom_labelLayer
10
18.8887678
20
5.7341569
40
0.1689516
50
318.143808
51
329.7563532
0
ARC
8
bottom_labelLayer
10
18.8946189
20
5.729467
40
0.1614649
50
278.8959136
51
317.9979231
0
ARC
8
bottom_labelLayer
10
18.879544
20
5.8016993
40
0.235189
50
269.7505527
51
279.803064
0
ARC
8
bottom_labelLayer
10
18.8770997
20
5.7609914
40
0.194484
50
253.5435396
51
270.41846
0
ARC
8
bottom_labelLayer
10
18.8706264
20
5.7359545
40
0.1686412
50
238.8119461
51
253.2430344
0
ARC
8
bottom_labelLayer
10
18.8685366
20
5.7317498
40
0.1639623
50
207.7946296
51
238.6758097
0
ARC
8
bottom_labelLayer
10
18.89848
20
5.7500965
40
0.1990191
50
205.6566603
51
208.4473539
0
ARC
8
bottom_labelLayer
10
18.9216108
20
5.7597346
40
0.2240461
50
188.9102405
51
205.3172245
0
ARC
8
bottom_labelLayer
10
18.9994518
20
5.7729173
40
0.3029911
50
179.7747123
51
189.0931101
0
ARC
8
bottom_labelLayer
10
19.010925
20
5.7762376
40
0.3144691
50
169.2443409
51
180.3878994
0
ARC
8
bottom_labelLayer
10
18.9041264
20
5.7973479
40
0.2056088
50
150.7109403
51
169.4696405
0
ARC
8
bottom_labelLayer
10
18.870036
20
5.8148559
40
0.1673172
50
138.1757886
51
150.2288708
0
ARC
8
bottom_labelLayer
10
18.8643686
20
5.8192046
40
0.1601949
50
99.1759159
51
137.983122
0
ARC
8
bottom_labelLayer
10
18.8799774
20
5.7457415
40
0.2352362
50
89.7329031
51
100.0757438
0
ARC
8
bottom_labelLayer
10
18.8830958
20
5.7774713
40
0.2035138
50
73.5225137
51
90.5692004
0
ARC
8
bottom_labelLayer
10
18.8950297
20
5.8208354
40
0.1585479
50
41.1446346
51
73.2132014
0
ARC
8
bottom_labelLayer
10
18.872246
20
5.8012541
40
0.1885892
50
13.5016274
51
41.0701756
0
ARC
8
bottom_labelLayer
10
18.7842274
20
5.7782209
40
0.2795589
50
1.1278932
51
13.8801107
0
ARC
8
bottom_labelLayer
10
18.7086459
20
5.7741588
40
0.3552149
50
359.9919062
51
1.5430005
0
ARC
8
bottom_labelLayer
10
19.0659187
20
5.7725347
40
0.3067065
50
179.705974
51
187.9157881
0
ARC
8
bottom_labelLayer
10
18.9534186
20
5.7563754
40
0.1930536
50
187.7638014
51
200.0977304
0
ARC
8
bottom_labelLayer
10
18.8914523
20
5.7336709
40
0.1270587
50
200.0846481
51
216.9132957
0
ARC
8
bottom_labelLayer
10
18.868824
20
5.7175127
40
0.099264
50
217.3008954
51
261.7100205
0
ARC
8
bottom_labelLayer
10
18.8793293
20
5.7676459
40
0.1504215
50
260.5035471
51
270.2476365
0
ARC
8
bottom_labelLayer
10
18.8813336
20
5.7578952
40
0.1406759
50
269.4484752
51
284.7257517
0
ARC
8
bottom_labelLayer
10
18.8924702
20
5.7165937
40
0.0979006
50
284.5664053
51
322.6331779
0
ARC
8
bottom_labelLayer
10
18.8664341
20
5.7354029
40
0.1300116
50
323.0089922
51
342.6392868
0
ARC
8
bottom_labelLayer
10
18.7919533
20
5.7597448
40
0.2083653
50
342.3618482
51
353.7536354
0
ARC
8
bottom_labelLayer
10
18.6821002
20
5.7729855
40
0.3190092
50
353.536366
51
0.2017219
0
ARC
8
bottom_labelLayer
10
18.6989216
20
5.7756497
40
0.30219
50
359.7078089
51
7.8974867
0
ARC
8
bottom_labelLayer
10
18.8095885
20
5.791516
40
0.1903935
50
7.7440036
51
20.0687674
0
ARC
8
bottom_labelLayer
10
18.8712592
20
5.814145
40
0.1247022
50
20.0260933
51
37.4349267
0
ARC
8
bottom_labelLayer
10
18.8917243
20
5.8286672
40
0.0996288
50
37.9575311
51
80.4008238
0
ARC
8
bottom_labelLayer
10
18.8800961
20
5.7767879
40
0.1527466
50
79.3451221
51
90.3174696
0
ARC
8
bottom_labelLayer
10
18.8779432
20
5.7854056
40
0.1441325
50
89.4806009
51
103.8808021
0
ARC
8
bottom_labelLayer
10
18.865832
20
5.8315219
40
0.09646
50
103.4684933
51
142.3119692
0
ARC
8
bottom_labelLayer
10
18.8893795
20
5.8149621
40
0.125225
50
142.9028892
51
162.3748649
0
ARC
8
bottom_labelLayer
10
18.96356
20
5.7902401
40
0.2034119
50
162.0648734
51
173.1674342
0
ARC
8
bottom_labelLayer
10
19.0792316
20
5.7754849
40
0.3200184
50
173.0082407
51
180.2464071
0
LINE
8
bottom_labelLayer
10
19.3539115
20
5.623793
11
19.3539115
21
5.5774579
0
LINE
8
bottom_labelLayer
10
19.1744084
20
5.6887352
11
19.1744084
21
5.9266134
0
LINE
8
bottom_labelLayer
10
19.1744084
20
5.9266134
11
19.1171279
21
5.9266134
0
LINE
8
bottom_labelLayer
10
19.1171279
20
5.9266134
11
19.1171279
21
5.9558009
0
LINE
8
bottom_labelLayer
10
19.1171279
20
5.9558009
11
19.1744084
21
5.9809751
0
LINE
8
bottom_labelLayer
10
19.1744084
20
5.9809751
11
19.1999474
21
6.0663485
0
LINE
8
bottom_labelLayer
10
19.1999474
20
6.0663485
11
19.2349724
21
6.0663485
0
LINE
8
bottom_labelLayer
10
19.2349724
20
6.0663485
11
19.2349724
21
5.9736782
0
LINE
8
bottom_labelLayer
10
19.2349724
20
5.9736782
11
19.3509928
21
5.9736782
0
LINE
8
bottom_labelLayer
10
19.3509928
20
5.9736782
11
19.3509928
21
5.9266134
0
LINE
8
bottom_labelLayer
10
19.3509928
20
5.9266134
11
19.2349724
21
5.9266134
0
LINE
8
bottom_labelLayer
10
19.2349724
20
5.9266134
11
19.2349724
21
5.6912891
0
ARC
8
bottom_labelLayer
10
19.2996016
20
5.81539
40
0.1988943
50
269.879971
51
278.3027232
0
ARC
8
bottom_labelLayer
10
19.302451
20
5.7936705
40
0.1769911
50
278.4052781
51
279.0190481
0
ARC
8
bottom_labelLayer
10
19.2791022
20
5.9429258
40
0.3280614
50
278.960093
51
280.5094837
0
ARC
8
bottom_labelLayer
10
19.3003949
20
5.8286232
40
0.2117926
50
280.4859851
51
282.6254925
0
ARC
8
bottom_labelLayer
10
19.3190641
20
5.7456441
40
0.1267394
50
282.5891204
51
285.5775732
0
ARC
8
bottom_labelLayer
10
19.3283467
20
5.7113972
40
0.0912579
50
285.7378096
51
286.2684322
0
ARC
8
bottom_labelLayer
10
19.3284322
20
5.6313562
40
0.0596173
50
287.9911622
51
295.3014863
0
ARC
8
bottom_labelLayer
10
19.314099
20
5.6747177
40
0.1052861
50
283.305408
51
288.1213555
0
ARC
8
bottom_labelLayer
10
19.2988942
20
5.7381449
40
0.1705101
50
280.0068716
51
283.3724239
0
ARC
8
bottom_labelLayer
10
19.2890297
20
5.7915339
40
0.2248015
50
279.1832592
51
280.1183002
0
ARC
8
bottom_labelLayer
10
19.2825209
20
5.8285982
40
0.2624299
50
275.5257286
51
279.2946507
0
ARC
8
bottom_labelLayer
10
19.2895422
20
5.7552005
40
0.1886972
50
270.8922807
51
275.5497137
0
ARC
8
bottom_labelLayer
10
19.2904202
20
5.722608
40
0.1560953
50
270.0031193
51
270.7563546
0
ARC
8
bottom_labelLayer
10
19.2879842
20
5.7246736
40
0.15818
50
253.784525
51
270.8854727
0
ARC
8
bottom_labelLayer
10
19.2692443
20
5.6607656
40
0.0915813
50
190.3818657
51
253.8771281
0
ARC
8
bottom_labelLayer
10
19.3647634
20
5.6865918
40
0.1903669
50
179.3548656
51
192.8476437
0
ARC
8
bottom_labelLayer
10
19.3569085
20
5.6905253
40
0.1219385
50
179.641097
51
189.7514802
0
ARC
8
bottom_labelLayer
10
19.3138753
20
5.682848
40
0.0782273
50
189.548155
51
205.7871009
0
ARC
8
bottom_labelLayer
10
19.2961779
20
5.6746869
40
0.058743
50
206.1289482
51
221.4086646
0
ARC
8
bottom_labelLayer
10
19.2941967
20
5.6731836
40
0.0562629
50
221.5949715
51
262.3503378
0
ARC
8
bottom_labelLayer
10
19.298916
20
5.6974553
40
0.0809597
50
261.3266853
51
270.1903553
0
LINE
8
bottom_labelLayer
10
19.6176935
20
5.623793
11
19.6176935
21
5.5774579
0
LINE
8
bottom_labelLayer
10
19.4381904
20
5.6887352
11
19.4381904
21
5.9266134
0
LINE
8
bottom_labelLayer
10
19.4381904
20
5.9266134
11
19.3809099
21
5.9266134
0
LINE
8
bottom_labelLayer
10
19.3809099
20
5.9266134
11
19.3809099
21
5.9558009
0
LINE
8
bottom_labelLayer
10
19.3809099
20
5.9558009
11
19.4381904
21
5.9809751
0
LINE
8
bottom_labelLayer
10
19.4381904
20
5.9809751
11
19.4637295
21
6.0663485
0
LINE
8
bottom_labelLayer
10
19.4637295
20
6.0663485
11
19.4987545
21
6.0663485
0
LINE
8
bottom_labelLayer
10
19.4987545
20
6.0663485
11
19.4987545
21
5.9736782
0
LINE
8
bottom_labelLayer
10
19.4987545
20
5.9736782
11
19.6147748
21
5.9736782
0
LINE
8
bottom_labelLayer
10
19.6147748
20
5.9736782
11
19.6147748
21
5.9266134
0
LINE
8
bottom_labelLayer
10
19.6147748
20
5.9266134
11
19.4987545
21
5.9266134
0
LINE
8
bottom_labelLayer
10
19.4987545
20
5.9266134
11
19.4987545
21
5.6912891
0
ARC
8
bottom_labelLayer
10
19.5633836
20
5.81539
40
0.1988943
50
269.879971
51
278.3027232
0
ARC
8
bottom_labelLayer
10
19.5662331
20
5.7936705
40
0.1769911
50
278.4052781
51
279.0190481
0
ARC
8
bottom_labelLayer
10
19.5428843
20
5.9429258
40
0.3280614
50
278.960093
51
280.5094837
0
ARC
8
bottom_labelLayer
10
19.5641769
20
5.8286232
40
0.2117926
50
280.4859851
51
282.6254925
0
ARC
8
bottom_labelLayer
10
19.5828462
20
5.7456441
40
0.1267394
50
282.5891204
51
285.5775732
0
ARC
8
bottom_labelLayer
10
19.5921287
20
5.7113972
40
0.0912579
50
285.7378096
51
286.2684322
0
ARC
8
bottom_labelLayer
10
19.5922142
20
5.6313562
40
0.0596173
50
287.9911622
51
295.3014863
0
ARC
8
bottom_labelLayer
10
19.5778811
20
5.6747177
40
0.1052861
50
283.305408
51
288.1213555
0
ARC
8
bottom_labelLayer
10
19.5626762
20
5.7381449
40
0.1705101
50
280.0068716
51
283.3724239
0
ARC
8
bottom_labelLayer
10
19.5528118
20
5.7915339
40
0.2248015
50
279.1832592
51
280.1183002
0
ARC
8
bottom_labelLayer
10
19.546303
20
5.8285982
40
0.2624299
50
275.5257286
51
279.2946507
0
ARC
8
bottom_labelLayer
10
19.5533243
20
5.7552005
40
0.1886972
50
270.8922807
51
275.5497137
0
ARC
8
bottom_labelLayer
10
19.5542022
20
5.722608
40
0.1560953
50
270.0031193
51
270.7563546
0
ARC
8
bottom_labelLayer
10
19.5517662
20
5.7246736
40
0.15818
50
253.784525
51
270.8854727
0
ARC
8
bottom_labelLayer
10
19.5330264
20
5.6607656
40
0.0915813
50
190.3818657
51
253.8771281
0
ARC
8
bottom_labelLayer
10
19.6285454
20
5.6865918
40
0.1903669
50
179.3548656
51
192.8476437
0
ARC
8
bottom_labelLayer
10
19.6206906
20
5.6905253
40
0.1219385
50
179.641097
51
189.7514802
0
ARC
8
bottom_labelLayer
10
19.5776574
20
5.682848
40
0.0782273
50
189.548155
51
205.7871009
0
ARC
8
bottom_labelLayer
10
19.55996
20
5.6746869
40
0.058743
50
206.1289482
51
221.4086646
0
ARC
8
bottom_labelLayer
10
19.5579787
20
5.6731836
40
0.0562629
50
221.5949715
51
262.3503378
0
ARC
8
bottom_labelLayer
10
19.562698
20
5.6974553
40
0.0809597
50
261.3266853
51
270.1903553
0
ARC
8
bottom_labelLayer
10
19.7299008
20
5.7719996
40
0.3128429
50
349.1763562
51
0.3862616
0
ARC
8
bottom_labelLayer
10
19.8352278
20
5.7510041
40
0.2054486
50
330.2508152
51
349.4114651
0
ARC
8
bottom_labelLayer
10
19.8676436
20
5.7341569
40
0.1689516
50
318.143808
51
329.7563532
0
ARC
8
bottom_labelLayer
10
19.8734947
20
5.729467
40
0.1614649
50
278.8959136
51
317.9979231
0
ARC
8
bottom_labelLayer
10
19.8584198
20
5.8016993
40
0.235189
50
269.7505527
51
279.803064
0
ARC
8
bottom_labelLayer
10
19.8559755
20
5.7609914
40
0.194484
50
253.5435396
51
270.41846
0
ARC
8
bottom_labelLayer
10
19.8495022
20
5.7359545
40
0.1686412
50
238.8119461
51
253.2430344
0
ARC
8
bottom_labelLayer
10
19.8474124
20
5.7317498
40
0.1639623
50
207.7946296
51
238.6758097
0
ARC
8
bottom_labelLayer
10
19.8773558
20
5.7500965
40
0.1990191
50
205.6566603
51
208.4473539
0
ARC
8
bottom_labelLayer
10
19.9004865
20
5.7597346
40
0.2240461
50
188.9102405
51
205.3172245
0
ARC
8
bottom_labelLayer
10
19.9783276
20
5.7729173
40
0.3029911
50
179.7747123
51
189.0931101
0
ARC
8
bottom_labelLayer
10
19.9898007
20
5.7762376
40
0.3144691
50
169.2443409
51
180.3878994
0
ARC
8
bottom_labelLayer
10
19.8830022
20
5.7973479
40
0.2056088
50
150.7109403
51
169.4696405
0
ARC
8
bottom_labelLayer
10
19.8489117
20
5.8148559
40
0.1673172
50
138.1757886
51
150.2288708
0
ARC
8
bottom_labelLayer
10
19.8432443
20
5.8192046
40
0.1601949
50
99.1759159
51
137.983122
0
ARC
8
bottom_labelLayer
10
19.8588532
20
5.7457415
40
0.2352362
50
89.7329031
51
100.0757438
0
ARC
8
bottom_labelLayer
10
19.8619715
20
5.7774713
40
0.2035138
50
73.5225137
51
90.5692004
0
ARC
8
bottom_labelLayer
10
19.8739055
20
5.8208354
40
0.1585479
50
41.1446346
51
73.2132014
0
ARC
8
bottom_labelLayer
10
19.8511218
20
5.8012541
40
0.1885892
50
13.5016274
51
41.0701756
0
ARC
8
bottom_labelLayer
10
19.7631032
20
5.7782209
40
0.2795589
50
1.1278932
51
13.8801107
0
ARC
8
bottom_labelLayer
10
19.6875217
20
5.7741588
40
0.3552149
50
359.9919062
51
1.5430005
0
ARC
8
bottom_labelLayer
10
20.0447945
20
5.7725347
40
0.3067065
50
179.705974
51
187.9157881
0
ARC
8
bottom_labelLayer
10
19.9322944
20
5.7563754
40
0.1930536
50
187.7638014
51
200.0977304
0
ARC
8
bottom_labelLayer
10
19.8703281
20
5.7336709
40
0.1270587
50
200.0846481
51
216.9132957
0
ARC
8
bottom_labelLayer
10
19.8476998
20
5.7175127
40
0.099264
50
217.3008954
51
261.7100205
0
ARC
8
bottom_labelLayer
10
19.8582051
20
5.7676459
40
0.1504215
50
260.5035471
51
270.2476365
0
ARC
8
bottom_labelLayer
10
19.8602094
20
5.7578952
40
0.1406759
50
269.4484752
51
284.7257517
0
ARC
8
bottom_labelLayer
10
19.871346
20
5.7165937
40
0.0979006
50
284.5664053
51
322.6331779
0
ARC
8
bottom_labelLayer
10
19.8453099
20
5.7354029
40
0.1300116
50
323.0089922
51
342.6392868
0
ARC
8
bottom_labelLayer
10
19.7708291
20
5.7597448
40
0.2083653
50
342.3618482
51
353.7536354
0
ARC
8
bottom_labelLayer
10
19.660976
20
5.7729855
40
0.3190092
50
353.536366
51
0.2017219
0
ARC
8
bottom_labelLayer
10
19.6777973
20
5.7756497
40
0.30219
50
359.7078089
51
7.8974867
0
ARC
8
bottom_labelLayer
10
19.7884643
20
5.791516
40
0.1903935
50
7.7440036
51
20.0687674
0
ARC
8
bottom_labelLayer
10
19.850135
20
5.814145
40
0.1247022
50
20.0260933
51
37.4349267
0
ARC
8
bottom_labelLayer
10
19.8706001
20
5.8286672
40
0.0996288
50
37.9575311
51
80.4008238
0
ARC
8
bottom_labelLayer
10
19.8589719
20
5.7767879
40
0.1527466
50
79.3451221
51
90.3174696
0
ARC
8
bottom_labelLayer
10
19.856819
20
5.7854056
40
0.1441325
50
89.4806009
51
103.8808021
0
ARC
8
bottom_labelLayer
10
19.8447077
20
5.8315219
40
0.09646
50
103.4684933
51
142.3119692
0
ARC
8
bottom_labelLayer
10
19.8682553
20
5.8149621
40
0.125225
50
142.9028892
51
162.3748649
0
ARC
8
bottom_labelLayer
10
19.9424358
20
5.7902401
40
0.2034119
50
162.0648734
51
173.1674342
0
ARC
8
bottom_labelLayer
10
20.0581073
20
5.7754849
40
0.3200184
50
173.0082407
51
180.2464071
0
LINE
8
bottom_labelLayer
10
20.7191568
20
5.5738094
11
20.6585928
21
5.5738094
0
LINE
8
bottom_labelLayer
10
20.6585928
20
5.5738094
11
20.6585928
21
5.833943
0
LINE
8
bottom_labelLayer
10
20.464131
20
5.7970938
11
20.464131
21
5.5738094
0
LINE
8
bottom_labelLayer
10
20.464131
20
5.5738094
11
20.403567
21
5.5738094
0
LINE
8
bottom_labelLayer
10
20.403567
20
5.5738094
11
20.403567
21
5.833943
0
LINE
8
bottom_labelLayer
10
20.2094701
20
5.7835946
11
20.2094701
21
5.5738094
0
LINE
8
bottom_labelLayer
10
20.2094701
20
5.5738094
11
20.148906
21
5.5738094
0
LINE
8
bottom_labelLayer
10
20.148906
20
5.5738094
11
20.148906
21
5.9736782
0
LINE
8
bottom_labelLayer
10
20.148906
20
5.9736782
11
20.1981599
21
5.9736782
0
LINE
8
bottom_labelLayer
10
20.1981599
20
5.9736782
11
20.2080107
21
5.9189516
0
LINE
8
bottom_labelLayer
10
20.2080107
20
5.9189516
11
20.2109295
21
5.9189516
0
LINE
8
bottom_labelLayer
10
20.4517264
20
5.9131141
11
20.4546451
21
5.9131141
0
LINE
8
bottom_labelLayer
10
20.7191568
20
5.8346727
11
20.7191568
21
5.5738094
0
ARC
8
bottom_labelLayer
10
20.4799351
20
5.8348946
40
0.1786602
50
359.6948354
51
8.1475573
0
ARC
8
bottom_labelLayer
10
20.5457422
20
5.8446351
40
0.1121374
50
7.9862257
51
20.7954688
0
ARC
8
bottom_labelLayer
10
20.5821149
20
5.8585688
40
0.0731874
50
20.7073494
51
40.0223728
0
ARC
8
bottom_labelLayer
10
20.5900938
20
5.8637899
40
0.0637299
50
41.0408999
51
73.1792963
0
ARC
8
bottom_labelLayer
10
20.5785459
20
5.8288618
40
0.1005098
50
72.6397946
51
86.2567255
0
ARC
8
bottom_labelLayer
10
20.5748442
20
5.7889283
40
0.1406041
50
85.8139065
51
90.0674541
0
ARC
8
bottom_labelLayer
10
20.5734878
20
5.7736923
40
0.1558443
50
89.5621782
51
101.2959558
0
ARC
8
bottom_labelLayer
10
20.5617504
20
5.8298878
40
0.0984396
50
101.0033578
51
121.7843359
0
ARC
8
bottom_labelLayer
10
20.5528293
20
5.8458143
40
0.0802067
50
122.3598691
51
140.2876404
0
ARC
8
bottom_labelLayer
10
20.5688818
20
5.8340458
40
0.1000817
50
140.9766063
51
161.1698345
0
ARC
8
bottom_labelLayer
10
20.6293715
20
5.8125201
40
0.1642838
50
160.8734591
51
172.5267145
0
ARC
8
bottom_labelLayer
10
20.7304234
20
5.7985658
40
0.2662932
50
172.3777117
51
180.1829164
0
ARC
8
bottom_labelLayer
10
20.9466771
20
5.7969393
40
0.4825461
50
179.9078127
51
179.9816472
0
ARC
8
bottom_labelLayer
10
20.2249093
20
5.8348946
40
0.1786602
50
359.6948354
51
8.1475573
0
ARC
8
bottom_labelLayer
10
20.2907165
20
5.8446351
40
0.1121374
50
7.9862257
51
20.7954688
0
ARC
8
bottom_labelLayer
10
20.3270891
20
5.8585688
40
0.0731874
50
20.7073494
51
40.0223728
0
ARC
8
bottom_labelLayer
10
20.3352337
20
5.8639045
40
0.0635297
50
41.0610642
51
72.8991993
0
ARC
8
bottom_labelLayer
10
20.3234691
20
5.8288831
40
0.1004666
50
72.3595295
51
85.9567225
0
ARC
8
bottom_labelLayer
10
20.3194821
20
5.7876998
40
0.1418326
50
85.5231462
51
90.0783723
0
ARC
8
bottom_labelLayer
10
20.3181258
20
5.7791077
40
0.1504289
50
89.5573097
51
101.482799
0
ARC
8
bottom_labelLayer
10
20.3065796
20
5.8332091
40
0.0951133
50
101.1544958
51
123.0660954
0
ARC
8
bottom_labelLayer
10
20.2987336
20
5.8468751
40
0.0793847
50
123.701994
51
142.301598
0
ARC
8
bottom_labelLayer
10
20.3171139
20
5.8344065
40
0.1015617
50
143.0767504
51
161.3915526
0
ARC
8
bottom_labelLayer
10
20.3911969
20
5.8082397
40
0.1801253
50
161.0228614
51
171.4476304
0
ARC
8
bottom_labelLayer
10
20.5138907
20
5.7890175
40
0.3043144
50
171.3041214
51
178.350178
0
ARC
8
bottom_labelLayer
10
20.631085
20
5.7837868
40
0.4216147
50
178.0981674
51
180.0261184
0
ARC
8
bottom_labelLayer
10
20.3135323
20
5.8586168
40
0.1190279
50
117.1208394
51
149.542658
0
ARC
8
bottom_labelLayer
10
20.3256803
20
5.8370271
40
0.1437847
50
93.8340829
51
117.5074765
0
ARC
8
bottom_labelLayer
10
20.3290337
20
5.8073784
40
0.1735967
50
89.9652909
51
94.2840548
0
ARC
8
bottom_labelLayer
10
20.3310476
20
5.7827026
40
0.1982817
50
77.5571171
51
90.551554
0
ARC
8
bottom_labelLayer
10
20.3494449
20
5.8618328
40
0.1170496
50
52.7028206
51
78.0051862
0
ARC
8
bottom_labelLayer
10
20.3560011
20
5.8740307
40
0.1033964
50
22.2095742
51
51.4969903
0
ARC
8
bottom_labelLayer
10
20.5643592
20
5.8502366
40
0.1264546
50
119.4040471
51
150.1828226
0
ARC
8
bottom_labelLayer
10
20.5784306
20
5.8288273
40
0.1520247
50
118.2591601
51
120.0626571
0
ARC
8
bottom_labelLayer
10
20.5783444
20
5.8273506
40
0.1532865
50
95.8636392
51
117.9694502
0
ARC
8
bottom_labelLayer
10
20.5835301
20
5.7898824
40
0.191093
50
89.919153
51
96.2626674
0
ARC
8
bottom_labelLayer
10
20.5851984
20
5.7704685
40
0.2105112
50
79.935761
51
90.3806666
0
ARC
8
bottom_labelLayer
10
20.5992238
20
5.8464246
40
0.133274
50
62.9724195
51
80.1662452
0
ARC
8
bottom_labelLayer
10
20.6138869
20
5.8765093
40
0.0998137
50
44.2293343
51
62.6226424
0
ARC
8
bottom_labelLayer
10
20.6095248
20
5.8745835
40
0.104296
50
19.561628
51
43.3158209
0
ARC
8
bottom_labelLayer
10
20.5461806
20
5.8507924
40
0.1719539
50
7.5045145
51
19.9644702
0
ARC
8
bottom_labelLayer
10
20.4413743
20
5.8360752
40
0.2777861
50
359.7107254
51
7.6907569
0
ENDSEC
0
EOF